<svg width="160" height="160" viewBox="0 0 160 160" fill="none" xmlns="http://www.w3.org/2000/svg">
  <path d="M80 160C78.3838 160 76.8816 159.167 76.025 157.797L52.9087 120.811C30.7812 110.35 16.5625 87.9891 16.5625 63.4375C16.5625 28.4578 45.0203 0 80 0C114.98 0 143.438 28.4578 143.438 63.4375C143.438 87.9891 129.218 110.35 107.091 120.811L83.9747 157.797C83.1181 159.167 81.6159 160 80 160Z" fill="#5A67D8"/>
  <path d="M80 0C79.9997 0 79.9997 0 80 0V160C81.6162 160 83.1184 159.167 83.975 157.797L107.091 120.811C129.218 110.35 143.438 87.9891 143.438 63.4375C143.438 28.4578 114.979 0 80 0Z" fill="#A0AEC0"/>
  <path d="M80.1563 107.728C55.8204 107.728 36.022 87.9294 36.022 63.5937C36.022 39.2581 55.8204 19.4594 80.1563 19.4594C104.492 19.4594 124.291 39.2581 124.291 63.5937C124.291 87.9294 104.492 107.728 80.1563 107.728Z" fill="#FFF4F4"/>
  <path d="M80.1562 19.4591C80.1041 19.4591 80.0522 19.461 80 19.461V107.726C80.0522 107.726 80.1041 107.728 80.1562 107.728C104.492 107.728 124.291 87.9291 124.291 63.5934C124.291 39.2578 104.492 19.4591 80.1562 19.4591Z" fill="#F6EFEA"/>
</svg>
