<svg width="1194" height="553" viewBox="0 0 1194 553" fill="none" xmlns="http://www.w3.org/2000/svg">
  <g clip-path="url(#clip0)">
    <path d="M114.612 292.484C96.7077 213.548 56.7055 206.667 25.9453 166.823C-2.05847 130.581 -24.6421 71.2903 54.3893 28.9027C177.152 -36.9926 327.71 30.4352 327.71 30.4352C327.71 30.4352 566.287 120.85 607.98 125.447C649.673 130.044 751.589 176.018 878.984 120.85C1006.38 65.6815 1115.24 70.2789 1149.99 111.655C1184.73 153.031 1105.98 272.562 1087.45 297.082C1068.92 321.601 1096.71 398.223 1126.83 428.872C1156.94 459.521 1251.9 554.533 1048.07 551.468C844.24 548.403 232.743 553.001 232.743 553.001C232.743 553.001 13.229 550.288 52.073 408.95C84.5009 290.952 121.561 323.133 114.612 292.484Z" fill="#2D3748"/>
    <path d="M193.366 281.756C218.951 281.756 239.691 268.034 239.691 251.107C239.691 234.18 218.951 220.458 193.366 220.458C167.781 220.458 147.04 234.18 147.04 251.107C147.04 268.034 167.781 281.756 193.366 281.756Z" fill="#434190"/>
    <path d="M115.77 309.34C133.04 309.34 147.04 300.078 147.04 288.652C147.04 277.227 133.04 267.964 115.77 267.964C98.5005 267.964 84.5006 277.227 84.5006 288.652C84.5006 300.078 98.5005 309.34 115.77 309.34Z" fill="#434190"/>
    <path d="M120.403 252.64C129.997 252.64 137.775 247.494 137.775 241.146C137.775 234.799 129.997 229.653 120.403 229.653C110.809 229.653 103.031 234.799 103.031 241.146C103.031 247.494 110.809 252.64 120.403 252.64Z" fill="#434190"/>
    <path d="M1147.67 488.637C1173.26 488.637 1194 474.915 1194 457.988C1194 441.061 1173.26 427.339 1147.67 427.339C1122.09 427.339 1101.35 441.061 1101.35 457.988C1101.35 474.915 1122.09 488.637 1147.67 488.637Z" fill="#434190"/>
    <path d="M34.7006 107.057C44.295 107.057 52.0727 101.911 52.0727 95.5636C52.0727 89.216 44.295 84.0702 34.7006 84.0702C25.1063 84.0702 17.3286 89.216 17.3286 95.5636C17.3286 101.911 25.1063 107.057 34.7006 107.057Z" fill="#434190"/>
    <path d="M324.235 510.091C369.648 510.091 406.463 485.735 406.463 455.689C406.463 425.644 369.648 401.287 324.235 401.287C278.822 401.287 242.008 425.644 242.008 455.689C242.008 485.735 278.822 510.091 324.235 510.091Z" fill="#5A67D8"/>
    <path d="M867.402 536.143C898.104 536.143 922.993 519.677 922.993 499.364C922.993 479.052 898.104 462.585 867.402 462.585C836.7 462.585 811.812 479.052 811.812 499.364C811.812 519.677 836.7 536.143 867.402 536.143Z" fill="#5A67D8"/>
    <path d="M1080.5 329.262C1097.13 329.262 1110.61 320.343 1110.61 309.34C1110.61 298.338 1097.13 289.419 1080.5 289.419C1063.87 289.419 1050.39 298.338 1050.39 309.34C1050.39 320.343 1063.87 329.262 1080.5 329.262Z" fill="#5A67D8"/>
    <path d="M855.821 169.887C889.081 169.887 916.044 152.049 916.044 130.044C916.044 108.039 889.081 90.2 855.821 90.2C822.561 90.2 795.598 108.039 795.598 130.044C795.598 152.049 822.561 169.887 855.821 169.887Z" fill="#5A67D8"/>
    <path d="M303.389 42.6941C319.379 42.6941 332.342 34.1178 332.342 23.5384C332.342 12.9591 319.379 4.38281 303.389 4.38281C287.398 4.38281 274.435 12.9591 274.435 23.5384C274.435 34.1178 287.398 42.6941 303.389 42.6941Z" fill="#5A67D8"/>
    <path d="M210.738 424.274C226.728 424.274 239.691 415.698 239.691 405.119C239.691 394.539 226.728 385.963 210.738 385.963C194.747 385.963 181.784 394.539 181.784 405.119C181.784 415.698 194.747 424.274 210.738 424.274Z" fill="#5A67D8"/>
    <path d="M1144.2 202.069C1160.19 202.069 1173.15 193.493 1173.15 182.913C1173.15 172.334 1160.19 163.758 1144.2 163.758C1128.21 163.758 1115.24 172.334 1115.24 182.913C1115.24 193.493 1128.21 202.069 1144.2 202.069Z" fill="#434190"/>
    <path d="M1097.87 528.481C1115.14 528.481 1129.14 519.218 1129.14 507.793C1129.14 496.367 1115.14 487.105 1097.87 487.105C1080.6 487.105 1066.6 496.367 1066.6 507.793C1066.6 519.218 1080.6 528.481 1097.87 528.481Z" fill="#434190"/>
    <path d="M1167.36 530.013C1176.95 530.013 1184.73 524.867 1184.73 518.52C1184.73 512.172 1176.95 507.026 1167.36 507.026C1157.77 507.026 1149.99 512.172 1149.99 518.52C1149.99 524.867 1157.77 530.013 1167.36 530.013Z" fill="#434190"/>
  </g>
  <defs>
    <clipPath id="clip0">
      <rect width="1194" height="553" fill="white"/>
    </clipPath>
  </defs>
</svg>
