<svg width="774" height="591" viewBox="0 0 774 591" fill="none" xmlns="http://www.w3.org/2000/svg">
  <g clip-path="url(#clip0)">
    <path d="M732.81 489.967C725.426 479.618 729.24 463.271 729.24 463.271C729.24 463.271 727.055 391.358 715.565 374.468C715.565 374.468 699.14 335.241 696.412 333.604C693.684 331.968 677.267 320.531 678.902 314.263C678.902 314.263 676.424 315.113 672.904 316.407C672.811 316.171 672.725 315.935 672.632 315.692C671.618 312.898 670.49 309.61 669.419 306.257C669.532 306.199 669.635 306.124 669.726 306.036C669.807 306.215 669.9 306.39 670.005 306.557C671.111 308.244 673.204 309.023 675.217 309.231C676.217 309.389 677.241 309.255 678.167 308.845C678.826 308.486 679.357 307.932 679.688 307.258C679.559 307.315 679.424 307.351 679.288 307.401C680.066 306.19 680.423 304.755 680.302 303.32C680.182 301.276 679.594 299.287 678.584 297.508C677.574 295.728 676.168 294.204 674.475 293.055C675.156 292.811 675.779 292.426 676.303 291.926L676.581 292.119C676.824 291.864 677.043 291.589 677.238 291.297C677.025 291.43 676.803 291.55 676.574 291.655C677.2 290.998 677.659 290.202 677.914 289.331C678.169 288.461 678.211 287.542 678.038 286.651C677.774 287.545 676.71 287.881 675.796 288.081C675.26 288.195 674.789 288.288 674.368 288.359C675.48 286.248 676.398 284.04 677.11 281.762C678.452 276.909 677.738 271.755 676.603 266.852C675.068 260.24 672.54 253.436 667.127 249.126C664.675 247.331 662.019 245.834 659.214 244.666C656.679 243.388 654.021 242.371 651.281 241.628C648.496 240.977 645.568 240.913 642.768 240.534C637.256 239.819 631.921 237.94 626.344 237.632C620.767 237.325 614.59 238.997 611.74 243.615C610.832 245.002 610.405 246.65 610.526 248.304C610.536 248.429 610.552 248.553 610.576 248.675C610.576 248.675 610.576 248.675 610.576 248.711C610.876 251.62 613.297 254.008 616.068 255.187C616.534 255.382 617.011 255.549 617.496 255.687C613.266 259.255 609.997 263.827 607.986 268.985C605.975 274.143 605.287 279.723 605.986 285.215C606.684 290.708 608.745 295.937 611.982 300.427C615.219 304.917 619.528 308.524 624.516 310.918C624.851 311.632 625.23 312.304 625.551 313.062C629.836 321.925 635.277 334.148 637.02 342.546C637.02 342.696 637.07 342.839 637.098 342.982C636.934 343.39 616.511 379.843 619.403 381.987L618.56 382.902C613.126 388.863 607.499 395.768 607.791 398.548C607.791 398.548 606.028 397.834 603.293 396.59L603.478 394.596L602.129 394.674V394.596L599.215 394.76C589.639 390.393 575.107 383.324 572.222 379.364C568.873 374.768 552.041 362.209 544.372 356.556V332.382H515.664L507.859 337.343L515.672 332.382H418.803L412.269 328.594L410.162 327.364C410.258 326.816 410.258 326.255 410.162 325.706C410.162 325.706 376.92 294.256 375.278 288.116C375.278 288.116 371.936 283.592 368.137 277.881L414.661 281.169C412.647 279.99 411.805 277.595 411.605 274.772H432.442C432.442 274.772 480.045 243.987 477.031 234.18C474.018 224.373 423.687 260.626 423.687 260.626H413.883C414.325 259.197 414.654 258.311 414.654 258.311C414.654 258.311 389.617 257.903 388.425 256.166C387.232 254.429 374.857 251.349 374.857 251.349L381.205 222.215C383.49 218.712 387.91 211.772 389.839 207.626C390.61 205.968 390.817 202.623 390.717 198.699V198.634C398.379 192.116 395.202 166.47 395.187 166.341C399.122 161.168 403.786 156.593 409.034 152.761C409.498 152.439 409.969 152.124 410.462 151.817C415.377 154.308 420.775 155.695 426.281 155.882C431.787 156.068 437.267 155.049 442.338 152.897C447.41 150.744 451.951 147.509 455.644 143.417C459.337 139.326 462.093 134.477 463.72 129.209C463.87 128.716 464.013 128.215 464.142 127.715C464.52 127.858 464.891 128.015 465.263 128.151C465.758 128.334 466.278 128.442 466.805 128.473C467.207 128.536 467.618 128.489 467.996 128.337C468.373 128.184 468.702 127.932 468.947 127.608C469.462 126.822 469.233 125.821 469.197 124.87H469.162C469.162 124.72 469.162 124.563 469.162 124.42C469.222 123.578 469.533 122.774 470.054 122.111V122.161C470.74 121.266 471.616 120.534 472.618 120.017C474.339 119.095 476.274 118.587 477.931 117.551C479.298 116.63 480.442 115.414 481.278 113.993C482.115 112.572 482.623 110.982 482.765 109.338L482.723 109.424C482.765 109.017 482.794 108.609 482.801 108.202C482.745 105.061 481.75 102.009 479.945 99.4387C477.545 95.8649 475.082 97.0085 471.918 95.1501C470.083 94.0851 469.526 91.9337 468.462 90.2111C466.61 87.3272 464.154 84.8809 461.264 83.0419C456.979 80.1828 452.08 78.3387 447.61 75.7584C441.469 72.1846 436.077 67.3027 429.436 64.8224C425.981 63.6574 422.419 62.8386 418.803 62.3779C416.753 62.0491 414.64 61.7203 412.619 62.1706C409.848 62.7925 407.62 64.7796 405.128 66.1233C399.136 69.3541 391.46 68.9252 386.018 73.0066C380.377 77.2308 378.877 84.8789 377.749 91.8121C375.814 103.67 373.65 115.836 367.366 126.121C366.997 126.578 366.814 127.157 366.851 127.744C367.004 128.205 367.299 128.605 367.694 128.887C368.527 129.613 369.405 130.286 370.322 130.903H369.515C367.559 129.7 365.872 128.106 364.559 126.221C364.164 125.663 363.651 125.199 363.058 124.861C362.464 124.523 361.803 124.32 361.122 124.266C360.441 124.211 359.757 124.307 359.117 124.546C358.477 124.785 357.897 125.162 357.418 125.649C357.34 125.735 357.254 125.828 357.19 125.914C355.954 127.551 307.123 145.556 296.869 155.934C286.771 166.184 275.874 180.994 275.539 181.459C275.539 181.459 274.86 182.173 273.646 183.488C268.512 188.971 253.608 204.41 239.24 215.26C238.526 215.796 237.812 216.318 237.098 216.825L236.834 217.004C232.925 219.681 228.873 222.142 224.694 224.373C224.401 224.502 224.108 224.652 223.816 224.774C223.454 224.927 223.106 225.109 222.773 225.317L222.687 225.36C220.081 226.561 217.767 227.311 216.439 227.011C211.926 225.989 180.334 263.171 177.456 279.518C174.578 295.865 171.3 296.672 171.3 296.672C171.3 296.672 165.966 311.79 166.787 314.649C167.394 316.757 163.095 324.655 161.938 332.396C144.628 332.518 78.6518 333.254 21.3661 337.257C19.0939 341.97 17.1051 346.816 15.4105 351.767C15.2533 352.21 15.1177 352.653 14.9677 353.103C13.966 356.202 13.1364 359.355 12.4826 362.545C10.7153 370.851 10.5577 379.419 12.0184 387.784C14.5321 401.786 21.9517 414.366 29.2284 426.61C33.5131 433.808 37.7977 441.027 42.2466 448.161C42.9607 449.318 43.6748 450.469 44.4318 451.627C46.617 455.094 48.8236 458.546 51.0944 461.948L51.9799 463.271L52.4155 463.907C52.7726 464.436 53.1296 464.965 53.4795 465.487C58.3283 472.577 63.4056 479.496 68.8471 486.1L72.2391 490.132C76.0025 494.499 79.9372 498.709 84.0791 502.74L84.2147 502.876L84.3576 503.012L84.5289 503.176C84.5706 503.223 84.616 503.266 84.6646 503.305C84.8074 503.455 84.9646 503.598 85.1217 503.741C90.7413 509.103 96.6715 514.13 102.882 518.794C108.416 512.311 116.728 504.656 116.728 504.656L156.939 470.347C159.229 468.277 161.69 466.405 164.295 464.75L168.287 464.843C173.628 469.889 181.905 474.135 191.667 477.63C192.341 480.517 193.183 483.362 194.187 486.151H201.328C201.328 486.151 204.899 506.579 202.55 512.032C200.2 517.486 202.964 543.904 222.116 550.987C222.116 550.987 231.699 552.624 233.613 542.267C235.527 531.91 235.798 509.581 235.798 509.581L238.276 488.852C264.141 493.034 286.614 494.327 286.614 494.327L289.292 519.752H314.6C314.893 519.923 315.186 520.088 315.471 520.266L316.05 520.617C316.728 521.038 317.392 521.467 318.042 521.91L318.149 521.982C328.561 529.001 335.838 537.993 340.572 545.369C351.955 540.866 363.488 536.971 375.321 534.598C390.917 531.474 406.742 531.024 422.645 532.032L429.964 521.982L431.593 519.752H446.96L447.874 534.533C455.951 535.577 464.006 536.806 472.018 538.028L479.83 539.236V519.623L523.391 518.301C523.348 520.876 523.673 523.444 524.355 525.927C525.405 530.216 525.505 538.793 525.226 547.735C530.239 548.95 535.214 550.306 540.151 551.802C552.005 555.419 563.545 559.922 575.021 564.589C574.578 562.259 574.1 560.351 573.593 559.7C571.958 557.556 583.912 555.076 583.912 555.076C583.912 555.076 585.069 554.861 586.997 554.525V569.493C590.396 570.879 593.797 572.252 597.201 573.61L597.08 570.715L599.115 574.36C599.693 574.596 600.286 574.825 600.872 575.075H600.957C604.647 576.505 608.353 577.894 612.076 579.242L704.967 578.334V585.482H705.046C708.392 584.293 711.656 582.881 714.815 581.258L714.686 578.191L720.306 578.134H723.213V561.83L727.047 561.916V555.926L711.53 540.266C719.671 534.29 729.697 522.918 728.447 503.669C728.447 503.477 728.447 503.269 728.397 503.076C728.397 502.712 728.34 502.361 728.304 501.983C731.739 503.348 739.173 498.881 732.81 489.967ZM633.978 440.012C633.978 442.364 633.714 444.715 632.964 446.109C631.043 449.683 630.5 457.545 634.599 459.461C638.698 461.377 639.276 468.989 639.126 470.082H639.084C638.448 470.297 632.078 472.527 629.415 476.38C623.209 476.587 615.332 476.708 614.354 476.058C612.719 474.971 578.877 477.423 576.506 477.695C575.671 477.788 572.129 478.024 567.887 478.281L595.423 441.749C595.568 441.97 595.681 442.211 595.759 442.464C596.851 446.881 617.096 443.893 619.831 438.032C620.571 436.677 621.597 435.499 622.838 434.58L633.978 440.012ZM490.292 348.522L467.855 362.774L490.285 348.529L490.292 348.522ZM249.245 332.382L250.809 330.145L252.816 330.795L257.657 332.382H249.245ZM382.505 332.382H369.601C366.344 323.09 359.51 308.795 347.763 306.093C330.118 302.004 309.202 295.471 309.202 295.471C309.202 295.471 302.696 288.495 298.868 287.094C298.375 286.878 297.83 286.806 297.297 286.887L303.646 274.021C306.635 271.466 309.86 269.201 313.279 267.259C314.579 266.545 316.214 265.737 317.978 264.858C319.021 264.329 320.12 263.786 321.22 263.242C321.27 267.567 321.563 271.055 322.305 272.163C324.769 275.844 326.826 278.703 330.103 281.562C332.624 283.756 366.523 316.793 382.505 332.382ZM388.46 175.941L389.096 174.947C390.91 172.088 392.938 169.229 395.159 166.37L388.46 175.941ZM476.696 385.432V474.557L477.595 473.692L476.696 474.557V507.915V385.432ZM598.808 552.56L598.994 553.16L598.808 552.56Z" fill="url(#paint0_linear)"/>
    <path opacity="0.1" d="M767.002 496.636C759.803 527.371 745.657 558.821 719.971 576.347C719.035 576.998 718.071 577.62 717.114 578.227C715.686 579.099 714.258 579.943 712.829 580.736C712.458 580.943 712.115 581.136 711.715 581.329C708.59 582.944 705.359 584.348 702.046 585.532C677.553 594.374 649.431 591.493 624.13 583.931C619.388 582.501 614.69 580.95 610.041 579.271C606.349 577.948 602.685 576.555 599.029 575.125H598.944C598.365 574.903 597.78 574.675 597.208 574.41L595.309 573.695C591.938 572.352 588.575 570.984 585.218 569.593C581.262 567.97 577.313 566.333 573.364 564.718C562.003 560.072 550.584 555.597 538.851 552.002C533.974 550.508 529.04 549.143 524.084 547.957C509.294 544.333 494.241 541.817 479.173 539.465L471.368 538.264C463.442 537.042 455.465 535.827 447.474 534.783C439.162 533.697 430.828 532.796 422.48 532.296C406.77 531.331 391.06 531.746 375.649 534.848C363.938 537.206 352.526 541.08 341.258 545.569C305.01 559.993 270.254 580.65 231.999 577.162C212.933 575.425 194.987 567.677 177.606 559.65C152.662 548.142 127.775 535.663 106.038 519.159C99.9017 514.528 94.0453 509.537 88.4994 504.213C88.3423 504.077 88.1923 503.927 88.0423 503.784L87.9138 503.655L87.7424 503.491L87.4639 503.219C83.3649 499.216 79.4731 495.021 75.7454 490.675L72.3891 486.672C67.0047 480.096 61.9774 473.213 57.1857 466.158L55.6504 463.928L54.7721 462.613C51.7823 458.096 48.864 453.524 46.0171 448.897C41.6325 441.799 37.3764 434.601 33.1632 427.454C25.9578 415.303 18.6168 402.751 16.1317 388.856C14.6866 380.533 14.8417 372.011 16.5887 363.746C17.2396 360.574 18.0596 357.439 19.0453 354.354C19.1952 353.904 19.3309 353.468 19.488 353.025C21.1602 348.097 23.13 343.275 25.3865 338.586C40.9041 305.886 68.5044 274.557 67.5189 238.411C66.7405 210.535 49.0306 186.541 35.6054 162.11C22.1802 137.679 12.9825 106.2 28.4643 83.0062C41.5611 63.3214 67.3761 57.2745 90.8131 54.2653C114.672 51.1432 138.705 49.5532 162.767 49.5049C180.998 49.4406 198.315 53.6292 216.182 54.2224C238.048 54.9372 262.277 44.766 283.308 39.4839C307.683 33.375 332.029 27.2708 356.347 21.1715C397.922 10.7501 439.976 0.300209 482.83 5.84591e-06C525.683 -0.300197 570.086 10.7215 602.528 38.7477C613.64 48.3613 623.359 60.155 627.843 74.1573C637.17 103.284 622.452 135.963 631.414 165.198C639.162 190.379 662.342 206.897 681.894 224.523C755.897 291.319 789.753 399.563 767.002 496.636Z" fill="#5A67D8"/>
    <path d="M592.302 525.691L589.139 527.764L595.123 570.793L609.969 579.285L719.978 578.198L717.985 552.86L592.302 525.691Z" fill="#434190"/>
    <path d="M595.237 573.674C591.867 572.33 588.503 570.963 585.147 569.571V548.764L594.359 552.974V553.117L595.109 570.793L595.237 573.674Z" fill="#434190"/>
    <path opacity="0.1" d="M595.237 573.674C591.867 572.33 588.503 570.963 585.147 569.571V548.764L594.359 552.974V553.117L595.109 570.793L595.237 573.674Z" fill="black"/>
    <path d="M711.644 581.336C708.518 582.951 705.288 584.355 701.975 585.539H701.897V564.696L711.101 568.906V569.057L711.494 578.291L711.644 581.336Z" fill="#434190"/>
    <path opacity="0.1" d="M711.644 581.336C708.518 582.951 705.288 584.355 701.975 585.539H701.897V564.696L711.101 568.906V569.057L711.494 578.291L711.644 581.336Z" fill="black"/>
    <path d="M719.971 559.607V578.191H717.114L609.998 579.235C606.306 577.913 602.643 576.519 598.986 575.089H598.901L597.087 553.353L719.971 559.607Z" fill="#434190"/>
    <path d="M598.958 575.132H598.872C598.294 574.91 597.708 574.682 597.137 574.417L595.116 570.793L586.09 554.518L585.147 552.817L582.441 547.949L589.132 527.8L596.858 552.767L597.058 553.403L597.558 559.121L598.958 575.132Z" fill="#434190"/>
    <path d="M585.147 514.891H683.158L723.77 556.083L597.065 553.375L585.147 514.891Z" fill="#434190"/>
    <path d="M723.77 556.083V562.045L597.558 559.064L597.065 553.375L723.77 556.083Z" fill="#434190"/>
    <path opacity="0.1" d="M723.77 556.083V562.045L597.558 559.064L597.065 553.375L723.77 556.083Z" fill="black"/>
    <path d="M634.692 476.644C634.692 476.644 613.847 477.73 612.219 476.644C610.591 475.558 577.106 477.995 574.764 478.267C572.422 478.538 548.599 479.911 548.599 479.911L546.7 518.122L631.714 504.842L634.692 476.644Z" fill="#F3B4B3"/>
    <path opacity="0.1" d="M634.692 476.644C634.692 476.644 613.847 477.73 612.219 476.644C610.591 475.558 577.106 477.995 574.764 478.267C572.422 478.538 548.599 479.911 548.599 479.911L546.7 518.122L631.714 504.842L634.692 476.644Z" fill="black"/>
    <path d="M440.826 437.196L536.823 459.69L540.708 518.73L427.522 519.173L440.826 437.196Z" fill="#434190"/>
    <path d="M514.2 333.704L445.061 373.939L461.899 424.158L465.727 488.988L515.671 478.295L540.708 426.896L563.038 395.596L542.508 357.699L514.2 333.704Z" fill="#434190"/>
    <path d="M113.707 380.679C113.707 380.679 90.2418 331.832 102.01 291.133C107.059 274.093 106.448 255.874 100.268 239.212C97.283 231.325 93.5827 223.729 89.2135 216.518" stroke="#535461" stroke-width="2" stroke-miterlimit="10"/>
    <path d="M96.4474 190.822C97.4757 197.112 89.0707 217.211 89.0707 217.211C89.0707 217.211 74.7243 200.829 73.6959 194.539C73.2035 191.519 73.9298 188.427 75.7149 185.943C77.5001 183.459 80.198 181.787 83.215 181.294C86.232 180.801 89.3211 181.528 91.8027 183.315C94.2842 185.102 95.955 187.802 96.4474 190.822Z" fill="#5A67D8"/>
    <path d="M120.934 222.594C118.385 228.433 100.418 240.734 100.418 240.734C100.418 240.734 97.2615 219.177 99.818 213.337C101.044 210.534 103.333 208.334 106.18 207.22C109.027 206.106 112.2 206.17 115 207.398C117.8 208.625 119.998 210.916 121.111 213.765C122.224 216.615 122.16 219.791 120.934 222.594Z" fill="#5A67D8"/>
    <path d="M129.825 282.255C124.676 286.001 102.96 287.545 102.96 287.545C102.96 287.545 111.115 267.338 116.264 263.593C118.736 261.792 121.822 261.048 124.843 261.524C127.864 262.001 130.571 263.659 132.371 266.134C134.17 268.609 134.913 271.697 134.437 274.721C133.961 277.744 132.304 280.454 129.832 282.255H129.825Z" fill="#5A67D8"/>
    <path d="M126.39 328.915C121.948 333.483 100.811 338.665 100.811 338.665C100.811 338.665 105.431 317.379 109.873 312.812C110.929 311.726 112.189 310.86 113.58 310.261C114.971 309.663 116.466 309.345 117.98 309.325C119.494 309.305 120.997 309.584 122.403 310.145C123.809 310.707 125.091 311.54 126.176 312.597C127.26 313.655 128.126 314.916 128.724 316.308C129.322 317.7 129.639 319.197 129.659 320.712C129.679 322.227 129.401 323.732 128.84 325.139C128.279 326.547 127.446 327.83 126.39 328.915Z" fill="#5A67D8"/>
    <path d="M76.7237 245.845C81.951 249.49 103.688 250.598 103.688 250.598C103.688 250.598 95.1192 230.585 89.9205 226.918C88.6808 226.007 87.2718 225.354 85.7763 224.997C84.2808 224.639 82.7289 224.585 81.212 224.836C79.6951 225.088 78.2438 225.64 76.9434 226.462C75.643 227.283 74.5198 228.356 73.6399 229.618C72.7599 230.88 72.141 232.306 71.8195 233.811C71.4979 235.316 71.4803 236.87 71.7677 238.382C72.055 239.893 72.6415 241.333 73.4926 242.614C74.3437 243.896 75.4423 244.994 76.7237 245.845Z" fill="#5A67D8"/>
    <path d="M73.4031 300.503C79.4731 302.419 100.539 296.965 100.539 296.965C100.539 296.965 86.3999 280.404 80.3229 278.489C77.4294 277.65 74.3228 277.977 71.6675 279.401C69.0122 280.825 67.019 283.233 66.1141 286.109C65.2092 288.985 65.4644 292.101 66.8253 294.791C68.1861 297.481 70.5444 299.531 73.396 300.503H73.4031Z" fill="#5A67D8"/>
    <path d="M77.4521 353.997C83.115 356.913 104.802 355.105 104.802 355.105C104.802 355.105 93.6552 336.392 87.9924 333.476C86.6462 332.783 85.1769 332.362 83.6683 332.238C82.1598 332.114 80.6415 332.288 79.2002 332.751C77.759 333.214 76.4229 333.956 75.2683 334.936C74.1138 335.916 73.1633 337.114 72.4712 338.461C71.7791 339.809 71.359 341.279 71.2348 342.789C71.1105 344.299 71.2846 345.819 71.7471 347.261C72.2097 348.704 72.9515 350.041 73.9304 351.197C74.9093 352.353 76.1059 353.304 77.4521 353.997Z" fill="#5A67D8"/>
    <path opacity="0.25" d="M96.4474 190.822C97.4757 197.112 89.0707 217.211 89.0707 217.211C89.0707 217.211 74.7243 200.829 73.6959 194.539C73.2035 191.519 73.9298 188.427 75.7149 185.943C77.5001 183.459 80.198 181.787 83.215 181.294C86.232 180.801 89.3211 181.528 91.8027 183.315C94.2842 185.102 95.955 187.802 96.4474 190.822Z" fill="black"/>
    <path opacity="0.25" d="M120.934 222.594C118.385 228.433 100.418 240.734 100.418 240.734C100.418 240.734 97.2615 219.177 99.818 213.337C101.044 210.534 103.333 208.334 106.18 207.22C109.027 206.106 112.2 206.17 115 207.398C117.8 208.625 119.998 210.916 121.111 213.765C122.224 216.615 122.16 219.791 120.934 222.594Z" fill="black"/>
    <path opacity="0.25" d="M129.825 282.255C124.676 286.001 102.96 287.545 102.96 287.545C102.96 287.545 111.115 267.338 116.264 263.593C118.736 261.792 121.822 261.048 124.843 261.524C127.864 262.001 130.571 263.659 132.371 266.134C134.17 268.609 134.913 271.697 134.437 274.721C133.961 277.744 132.304 280.454 129.832 282.255H129.825Z" fill="black"/>
    <path opacity="0.25" d="M126.39 328.915C121.948 333.483 100.811 338.665 100.811 338.665C100.811 338.665 105.431 317.379 109.873 312.812C110.929 311.726 112.189 310.86 113.58 310.261C114.971 309.663 116.466 309.345 117.98 309.325C119.494 309.305 120.997 309.584 122.403 310.145C123.809 310.707 125.091 311.54 126.176 312.597C127.26 313.655 128.126 314.916 128.724 316.308C129.322 317.7 129.639 319.197 129.659 320.712C129.679 322.227 129.401 323.732 128.84 325.139C128.279 326.547 127.446 327.83 126.39 328.915Z" fill="black"/>
    <path opacity="0.25" d="M76.7237 245.845C81.951 249.49 103.688 250.598 103.688 250.598C103.688 250.598 95.1192 230.585 89.9205 226.918C88.6808 226.007 87.2718 225.354 85.7763 224.997C84.2808 224.639 82.7289 224.585 81.212 224.836C79.6951 225.088 78.2438 225.64 76.9434 226.462C75.643 227.283 74.5198 228.356 73.6399 229.618C72.7599 230.88 72.141 232.306 71.8195 233.811C71.4979 235.316 71.4803 236.87 71.7677 238.382C72.055 239.893 72.6415 241.333 73.4926 242.614C74.3437 243.896 75.4423 244.994 76.7237 245.845Z" fill="black"/>
    <path opacity="0.25" d="M73.4031 300.503C79.4731 302.419 100.539 296.965 100.539 296.965C100.539 296.965 86.3999 280.404 80.3229 278.489C77.4294 277.65 74.3228 277.977 71.6675 279.401C69.0122 280.825 67.019 283.233 66.1141 286.109C65.2092 288.985 65.4644 292.101 66.8253 294.791C68.1861 297.481 70.5444 299.531 73.396 300.503H73.4031Z" fill="black"/>
    <path opacity="0.25" d="M77.4521 353.997C83.115 356.913 104.802 355.105 104.802 355.105C104.802 355.105 93.6552 336.392 87.9924 333.476C86.6462 332.783 85.1769 332.362 83.6683 332.238C82.1598 332.114 80.6415 332.288 79.2002 332.751C77.759 333.214 76.4229 333.956 75.2683 334.936C74.1138 335.916 73.1633 337.114 72.4712 338.461C71.7791 339.809 71.359 341.279 71.2348 342.789C71.1105 344.299 71.2846 345.819 71.7471 347.261C72.2097 348.704 72.9515 350.041 73.9304 351.197C74.9093 352.353 76.1059 353.304 77.4521 353.997Z" fill="black"/>
    <path d="M113.815 378.885C113.815 378.885 72.5819 343.747 66.8691 301.761C64.5742 284.133 56.6285 267.725 44.2247 255.001C38.3064 249.008 31.8525 243.57 24.9438 238.754" stroke="#535461" stroke-width="2" stroke-miterlimit="10"/>
    <path d="M21.1733 212.315C24.6581 217.647 25.108 239.433 25.108 239.433C25.108 239.433 5.36295 230.277 1.8781 224.945C1.00013 223.679 0.384581 222.249 0.0678174 220.741C-0.248946 219.232 -0.260506 217.676 0.0338261 216.163C0.328158 214.65 0.922411 213.211 1.78149 211.932C2.64056 210.653 3.74704 209.559 5.03557 208.715C6.3241 207.871 7.76855 207.294 9.28361 207.018C10.7987 206.742 12.3536 206.773 13.8566 207.108C15.3596 207.444 16.7802 208.077 18.0344 208.972C19.2886 209.866 20.3511 211.003 21.159 212.315H21.1733Z" fill="#5A67D8"/>
    <path d="M56.4216 231.421C56.4216 237.797 44.9959 256.323 44.9959 256.323C44.9959 256.323 33.3845 237.897 33.356 231.528C33.3112 229.989 33.5745 228.457 34.1304 227.021C34.6862 225.585 35.5234 224.276 36.5926 223.169C37.6618 222.062 38.9414 221.18 40.3561 220.576C41.7709 219.971 43.2921 219.656 44.8304 219.649C46.3686 219.642 47.8927 219.943 49.313 220.534C50.7333 221.125 52.021 221.995 53.1004 223.092C54.1799 224.189 55.0292 225.491 55.5983 226.921C56.1675 228.352 56.445 229.882 56.4145 231.421H56.4216Z" fill="#5A67D8"/>
    <path d="M88.6993 282.37C85.5073 287.881 66.2835 298.095 66.2835 298.095C66.2835 298.095 65.5694 276.323 68.7472 270.805C70.2793 268.156 72.7998 266.226 75.7541 265.438C78.7084 264.649 81.8545 265.068 84.5004 266.602C87.1462 268.135 89.075 270.658 89.8625 273.615C90.6499 276.572 90.2315 279.721 88.6993 282.37Z" fill="#5A67D8"/>
    <path d="M104.453 326.421C102.239 332.389 85.0145 345.72 85.0145 345.72C85.0145 345.72 80.6442 324.37 82.8294 318.373C83.929 315.552 86.0918 313.277 88.8516 312.037C91.6114 310.798 94.7473 310.693 97.5834 311.746C100.42 312.799 102.729 314.925 104.014 317.666C105.299 320.407 105.456 323.543 104.453 326.399V326.421Z" fill="#5A67D8"/>
    <path d="M25.4151 270.619C31.6707 271.834 51.987 264.029 51.987 264.029C51.987 264.029 36.0624 249.176 29.814 247.961C26.841 247.447 23.7851 248.119 21.3018 249.834C18.8184 251.549 17.1052 254.169 16.5297 257.134C15.9542 260.098 16.5622 263.17 18.2232 265.691C19.8843 268.212 22.4661 269.981 25.4151 270.619Z" fill="#5A67D8"/>
    <path d="M44.4889 321.896C50.8159 321.182 67.8759 307.658 67.8759 307.658C67.8759 307.658 48.2451 298.252 41.9181 298.967C40.4139 299.136 38.9577 299.599 37.6326 300.332C36.3075 301.064 35.1395 302.05 34.1952 303.234C32.2882 305.626 31.4083 308.677 31.7492 311.718C31.918 313.224 32.3815 314.681 33.113 316.008C33.8446 317.334 34.83 318.503 36.013 319.448C38.4022 321.357 41.4511 322.238 44.4889 321.896Z" fill="#5A67D8"/>
    <path d="M69.8612 369.2C76.2167 369.564 95.3191 359.114 95.3191 359.114C95.3191 359.114 77.5521 346.527 71.1966 346.156C68.178 346.038 65.2339 347.11 62.9969 349.142C60.7599 351.174 59.4087 354.004 59.2338 357.022C59.0589 360.041 60.0742 363.007 62.0614 365.285C64.0487 367.562 66.8493 368.968 69.8612 369.2Z" fill="#5A67D8"/>
    <path d="M479.116 508.952V539.444L471.311 538.243C463.385 537.021 455.408 535.805 447.417 534.762L446.51 520.052L446.439 518.73L445.41 502.068L475.981 508.294L476.867 508.473L479.116 508.952Z" fill="#434190"/>
    <path opacity="0.1" d="M479.116 508.952V539.444L471.311 538.243C463.385 537.021 455.408 535.805 447.417 534.762L446.51 520.052L446.439 518.73L445.41 502.068L475.981 508.294L476.867 508.473L479.116 508.952Z" fill="black"/>
    <path d="M441.404 506.085L432.242 518.73L431.271 520.052L429.664 522.275L422.416 532.282C406.706 531.317 390.995 531.731 375.585 534.833C363.874 537.192 352.462 541.066 341.194 545.555C336.509 538.214 329.304 529.272 319.006 522.289C317.885 521.524 316.721 520.788 315.521 520.066C314.757 519.616 313.986 519.173 313.193 518.744C308.322 516.106 303.137 514.093 297.762 512.754L441.404 506.085Z" fill="#434190"/>
    <path d="M75.7097 490.632L93.1839 465.708L94.7121 463.564L95.6262 462.256L103.61 450.862H103.36C100.504 450.734 74.2601 449.669 46.0314 448.925C48.8878 453.543 51.8061 458.115 54.7863 462.642L55.6647 463.957L57.15 466.158C61.9417 473.213 66.969 480.096 72.3534 486.672L75.7097 490.632Z" fill="#434190"/>
    <path d="M514.557 333.697L506.824 338.629L489.435 349.73L461.435 367.599L459.364 368.914L460.028 389.592L337.009 395.568H201.364L164.773 386.412L164.009 386.218L163.245 386.026L156.011 384.21L124.205 376.269L16.5744 363.725C17.2253 360.552 18.0453 357.417 19.031 354.333C19.1809 353.882 19.3166 353.446 19.4737 353.003C21.1459 348.075 23.1157 343.254 25.3722 338.565C82.0653 334.584 147.356 333.855 164.488 333.733L168.772 333.697H514.557Z" fill="#434190"/>
    <path opacity="0.1" d="M441.411 506.085L297.776 512.733C305.367 514.634 312.561 517.864 319.028 522.275H429.714L441.411 506.085Z" fill="black"/>
    <path opacity="0.1" d="M103.61 450.841L95.6405 462.234L94.7264 463.542L93.1982 465.687H92.3199H90.3703L57.1643 466.087L55.6504 463.928L54.7721 462.613C51.7823 458.096 48.864 453.524 46.0171 448.897C74.2458 449.611 100.511 450.705 103.346 450.834L103.61 450.841Z" fill="black"/>
    <path d="M475.981 368.971V520.052H290.463L287.807 494.763C287.807 494.763 265.57 493.477 239.962 489.317C238.491 489.067 237.005 488.824 235.506 488.559C229.407 487.501 223.18 486.279 217.074 484.864L215.853 484.578C213.568 484.044 211.309 483.48 209.076 482.884C206.884 482.312 204.728 481.697 202.614 481.068C199.607 480.161 196.701 479.21 193.909 478.209C184.247 474.707 176.056 470.511 170.765 465.494L166.816 465.393L122.677 464.278H121.877H121.627H120.827L94.7121 463.607L92.3056 463.549L55.6933 463.993L54.8149 462.677C51.8252 458.16 48.9069 453.588 46.06 448.961C41.6753 441.863 37.4193 434.666 33.206 427.518C26.0007 415.367 18.6596 402.815 16.1745 388.92C14.7294 380.598 14.8845 372.075 16.6316 363.811C17.2825 360.638 18.1025 357.503 19.0881 354.418H164.788L165.673 354.683L170.508 356.112L171.272 356.341L172.036 356.57C185.211 360.501 212.319 368.342 219.288 368.342H231.499L294.727 368.499L353.219 368.664C395.58 368.764 437.113 368.878 459.343 368.935L475.981 368.971Z" fill="#434190"/>
    <path opacity="0.1" d="M475.981 367.649V518.73H290.463L287.807 493.441C287.807 493.441 265.67 492.155 240.119 488.009C239.269 487.859 238.405 487.723 237.541 487.58C231.214 486.501 224.687 485.257 218.331 483.82L217.453 483.62L216.875 483.484L215.325 483.113C213.225 482.627 211.14 482.105 209.084 481.554C206.827 480.964 204.609 480.337 202.428 479.675C199.379 478.767 196.43 477.788 193.602 476.758C184.076 473.277 176.006 469.118 170.75 464.157L168.965 464.107L123.805 462.963H123.019H122.777H121.984L95.6333 462.249L93.4196 462.191H92.3127L54.7935 462.649C51.8038 458.131 48.8854 453.559 46.0385 448.932C41.6539 441.835 37.3978 434.637 33.1846 427.489C25.9792 415.338 18.6382 402.787 16.1531 388.892C14.708 380.569 14.8631 372.047 16.6101 363.782C17.261 360.61 18.081 357.474 19.0667 354.39C19.2166 353.94 19.3523 353.504 19.5094 353.06H164.788L165.816 353.382C166.837 353.689 168.565 354.218 170.815 354.883L171.572 355.112C171.814 355.183 172.064 355.269 172.329 355.34C185.618 359.25 212.39 366.977 219.31 366.977H232.164L296.091 367.141L354.426 367.291L461.421 367.577L475.981 367.649Z" fill="black"/>
    <path opacity="0.1" d="M475.981 368.971V520.052H290.463L287.807 494.763C287.807 494.763 265.57 493.477 239.962 489.317C238.491 489.067 237.005 488.824 235.506 488.559C229.407 487.501 223.18 486.279 217.074 484.864L215.853 484.578C213.568 484.044 211.309 483.48 209.076 482.884C206.884 482.312 204.728 481.697 202.614 481.068C199.607 480.161 196.701 479.21 193.909 478.209C184.247 474.707 176.056 470.511 170.765 465.494L166.816 465.393L122.677 464.278H121.877H121.627H120.827L94.7121 463.607L92.3056 463.549L55.6933 463.993L54.8149 462.677C51.8252 458.16 48.9069 453.588 46.06 448.961C41.6753 441.863 37.4193 434.666 33.206 427.518C26.0007 415.367 18.6596 402.815 16.1745 388.92C14.7294 380.598 14.8845 372.075 16.6316 363.811C17.2825 360.638 18.1025 357.503 19.0881 354.418H164.788L165.673 354.683L170.508 356.112L171.272 356.341L172.036 356.57C185.211 360.501 212.319 368.342 219.288 368.342H231.499L294.727 368.499L353.219 368.664C395.58 368.764 437.113 368.878 459.343 368.935L475.981 368.971Z" fill="black"/>
    <path d="M514.557 333.704V357.635L475.989 386.476L459.364 368.928L514.557 333.704Z" fill="#434190"/>
    <path opacity="0.1" d="M514.557 333.704V357.635L475.989 386.476L459.364 368.928L514.557 333.704Z" fill="black"/>
    <path d="M534.517 360.087L514.558 357.635L475.989 386.476V401.565L534.517 360.087Z" fill="#434190"/>
    <path d="M542.943 333.704V383.817L555.797 398.012L475.989 475.136V401.565L534.517 360.087L514.558 357.635V333.704H542.943Z" fill="#434190"/>
    <path opacity="0.1" d="M542.943 333.704V383.817L555.797 398.012L475.989 475.136V401.565L534.517 360.087L514.558 357.635V333.704H542.943Z" fill="black"/>
    <path opacity="0.1" d="M547.821 398.455L600.129 395.596L596.137 437.196L535.402 518.208L537.18 459.69H490.635L547.821 398.455Z" fill="black"/>
    <path d="M549.149 398.455L601.457 395.596L597.473 437.196L536.738 518.208L538.509 459.69H491.97L549.149 398.455Z" fill="#434190"/>
    <path opacity="0.1" d="M583.283 422.422H556.683L522.991 459.69H539.394L539.037 471.633L583.283 422.422Z" fill="black"/>
    <path opacity="0.1" d="M581.512 422.422H554.912L521.22 459.69H537.623L537.259 471.633L581.512 422.422Z" fill="black"/>
    <path d="M582.398 422.422H555.797L522.106 459.69H538.509L538.144 471.633L582.398 422.422Z" fill="#DCE6F2"/>
    <path opacity="0.1" d="M537.623 517.322L476.874 519.173V474.25L492.856 458.803H539.394L537.623 517.322Z" fill="black"/>
    <path d="M536.738 518.208L475.989 520.059V475.136L491.97 459.69H538.509L536.738 518.208Z" fill="#434190"/>
    <path opacity="0.1" d="M536.738 518.208L475.989 520.059V475.136L491.97 459.69H538.509L536.738 518.208Z" fill="black"/>
    <path d="M708.409 540.502C705.42 542.765 702.142 544.619 698.662 546.012C698.662 546.012 629.55 550.079 619.803 550.079C614.804 550.079 605.156 551.409 596.858 552.731L594.366 553.117C591.146 553.639 588.253 554.132 586.09 554.547L585.147 554.718C583.233 555.047 582.091 555.261 582.091 555.261C582.091 555.261 570.258 557.699 571.879 559.865C572.379 560.515 572.857 562.409 573.307 564.725C561.946 560.079 550.527 555.605 538.794 552.009C533.917 550.515 528.983 549.15 524.027 547.964C524.298 539.051 524.205 530.523 523.163 526.263C522.484 523.794 522.164 521.24 522.213 518.68C522.213 518.379 522.213 518.094 522.277 517.815C522.677 514.019 524.419 512.583 524.784 509.738C525.055 507.594 530.139 506 535.831 504.577L537.166 504.248L538.045 504.034C541.479 503.205 544.936 502.404 547.535 501.525C547.735 501.461 547.921 501.396 548.099 501.325C548.762 501.092 549.411 500.82 550.042 500.51C550.199 500.417 550.356 500.339 550.499 500.246C555.919 496.994 610.884 488.323 615.211 486.972C619.538 485.622 626.037 479.653 626.037 479.653C626.195 478.692 626.571 477.78 627.137 476.987C629.772 473.156 636.077 470.94 636.706 470.726H636.748L642.011 466.659C642.011 466.659 663.02 463.528 683.851 466.659C685.429 466.895 686.993 467.166 688.557 467.481C694.288 468.554 699.858 470.358 705.131 472.849C711.101 475.779 716.222 479.76 719.721 485.143C721.633 488.102 723.009 491.375 723.784 494.813C724.364 497.321 724.781 499.864 725.034 502.426C725.091 502.998 725.141 503.555 725.169 504.113C726.39 523.24 716.464 534.562 708.409 540.502Z" fill="#F3B4B3"/>
    <path d="M432.178 276.38H405.913L410.198 262.285H423.509C423.509 262.285 473.325 226.246 476.303 236.003C479.281 245.759 432.178 276.38 432.178 276.38Z" fill="#FFCACE"/>
    <path d="M474.953 349.822C470.354 357.685 411.333 347.114 411.333 347.114L395.901 331.667L405.899 326.242L412.212 329.923L418.896 333.826C418.896 333.826 479.559 341.96 474.953 349.822Z" fill="#FFCACE"/>
    <path d="M299.247 425.695C299.247 425.695 294.834 428.447 289.164 431.971C280.801 437.132 269.74 443.865 266.184 445.48C260.228 448.189 254.279 457.674 246.689 465.265C242.318 469.632 239.933 476.437 238.691 481.426C238.159 483.51 237.758 485.625 237.491 487.759L226.115 492.355L209.062 490.732V462.041C209.062 462.041 211.497 450.112 216.103 449.576C216.529 449.517 216.945 449.4 217.339 449.225C222.252 447.153 230.778 437.024 237.491 433.036C243.496 429.462 248.138 418.676 249.595 414.952C249.909 414.137 250.073 413.666 250.073 413.666L270.783 402.944L299.247 425.695Z" fill="#FFCACE"/>
    <path opacity="0.1" d="M299.247 425.695C299.247 425.695 294.834 428.447 289.164 431.971C281.837 427.246 273.71 421.564 270.54 417.676C265.234 411.2 253.323 413.859 249.595 414.895C249.909 414.08 250.073 413.608 250.073 413.608L270.783 402.887L299.247 425.695Z" fill="black"/>
    <path d="M372.343 341.688C372.343 341.688 369.094 347.407 369.094 349.822C369.094 352.238 354.097 367.692 354.097 367.692L324.869 401.036C324.869 401.036 314.272 409.148 315.086 417.297C315.9 425.445 304.717 438.84 304.717 438.84C304.717 438.84 278.531 423.83 272.189 416.074C265.969 408.491 250.673 413.451 250.123 413.63C251.016 412.701 294.055 368.435 302.903 360.794C311.751 353.153 302.903 353.075 302.903 350.223C302.903 348.329 273.796 338.472 254.429 332.118C244.76 328.951 237.519 326.65 237.519 326.65L253.351 291.69L279.773 284.778C279.773 284.778 295.284 289.181 298.454 288.438C298.98 288.362 299.517 288.433 300.004 288.645C303.796 290.039 310.23 296.972 310.23 296.972C310.23 296.972 330.939 303.477 348.406 307.544C365.873 311.611 372.343 341.688 372.343 341.688Z" fill="#575988"/>
    <path opacity="0.1" d="M238.719 481.426C238.188 483.51 237.787 485.625 237.519 487.759L226.144 492.355L209.091 490.732V462.041C209.091 462.041 211.526 450.112 216.132 449.576C216.558 449.517 216.974 449.4 217.367 449.225C204.906 454.643 217.074 483.992 217.074 483.992C228.95 473.227 235.606 477.366 238.719 481.426Z" fill="black"/>
    <path d="M240.219 487.215L237.519 509.974C237.519 509.974 237.248 532.196 235.377 542.496C233.506 552.796 223.994 551.166 223.994 551.166C205.049 544.118 202.342 517.836 204.635 512.411C206.927 506.986 203.421 486.679 203.421 486.679H196.33C196.33 486.679 192.002 475.029 192.274 464.464C192.366 460.79 195.287 457.86 199.043 455.615C206.084 451.405 216.103 449.561 216.103 449.561C203.642 454.972 216.232 485.6 216.232 485.6C234.256 469.325 240.219 487.215 240.219 487.215Z" fill="#575988"/>
    <path opacity="0.1" d="M413.183 276.38H405.913L410.198 262.285H415.432C414.44 265.523 412.847 271.57 413.183 276.38Z" fill="black"/>
    <path d="M388.625 178.128L395.337 168.5C395.337 168.5 398.515 194.131 390.91 200.664L381.476 224.095L375.185 253.078C375.185 253.078 387.439 256.166 388.625 257.875C389.81 259.583 414.582 259.983 414.582 259.983C414.582 259.983 407.677 278.681 414.582 282.749L357.318 278.681L343.514 268.925L354.069 208.77L369.858 185.504L388.625 178.128Z" fill="#575988"/>
    <path opacity="0.1" d="M388.625 178.128L395.337 168.5C395.337 168.5 398.515 194.131 390.91 200.664L381.476 224.095L375.185 253.078C375.185 253.078 387.439 256.166 388.625 257.875C389.81 259.583 414.582 259.983 414.582 259.983C414.582 259.983 407.677 278.681 414.582 282.749L357.318 278.681L343.514 268.925L354.069 208.77L369.858 185.504L388.625 178.128Z" fill="black"/>
    <path d="M636.734 443.243L570.529 411.078C570.529 411.078 547.242 436.538 543.45 420.585C539.658 404.631 555.369 393.752 555.369 393.752L667.726 420.041L636.734 443.243Z" fill="#FFCACE"/>
    <path opacity="0.05" d="M636.734 443.243L570.529 411.078C570.529 411.078 547.242 436.538 543.45 420.585C539.658 404.631 555.369 393.752 555.369 393.752L667.726 420.041L636.734 443.243Z" fill="black"/>
    <path d="M354.069 233.158L344.15 245.966L342.943 247.525L333.917 259.175C333.917 259.175 325.469 263.228 318.921 266.538C317.178 267.417 315.564 268.246 314.279 268.925C310.895 270.859 307.703 273.111 304.746 275.651C302.66 277.381 301.282 278.681 301.282 278.681L289.099 281.126C289.099 281.126 205.849 235.188 225.744 226.653C230.393 224.659 235.656 221.25 240.997 217.19C255.215 206.397 269.961 191.036 275.046 185.583C276.253 184.296 276.917 183.567 276.917 183.567L289.057 176.662L328.025 210.55L354.069 233.158Z" fill="#FFCACE"/>
    <path d="M422.702 149.015C417.765 150.005 413.102 152.061 409.041 155.041C401.022 160.68 394.33 169.165 389.289 177.077C385.166 183.529 381.604 190.322 378.641 197.384C378.641 197.384 324.426 125.842 356.911 131.939C361.767 132.889 366.71 133.32 371.657 133.226C377.711 133.174 383.69 131.88 389.224 129.423C397.201 125.757 400.365 120.775 400.365 120.775C400.365 120.775 449.509 144.133 422.702 149.015Z" fill="#FFCACE"/>
    <path d="M672.868 324.884C672.868 324.884 634.692 361.202 635.235 349.008C635.263 347.255 635.078 345.505 634.685 343.797C632.964 335.434 627.594 323.283 623.338 314.491C620.181 307.958 617.625 303.241 617.625 303.241C617.625 303.241 665.277 282.105 663.378 289.417C662.756 291.805 663.556 296.401 664.899 301.518C666.284 306.786 668.262 312.612 669.897 317.136C671.533 321.661 672.868 324.884 672.868 324.884Z" fill="#FFCACE"/>
    <path opacity="0.1" d="M422.702 149.015C417.765 150.005 413.102 152.061 409.041 155.041C399.986 150.502 399.472 141.417 396.465 131.575C396.151 130.56 397.015 125.671 396.794 124.62C404.771 120.953 400.365 120.775 400.365 120.775C400.365 120.775 449.509 144.133 422.702 149.015Z" fill="black"/>
    <path d="M464.741 120.775C464.741 128.171 462.55 135.401 458.445 141.551C454.339 147.701 448.504 152.494 441.677 155.325C434.85 158.155 427.338 158.896 420.09 157.453C412.843 156.01 406.185 152.448 400.96 147.218C395.735 141.988 392.177 135.325 390.735 128.07C389.293 120.816 390.033 113.297 392.861 106.463C395.689 99.6301 400.478 93.7896 406.622 89.6804C412.766 85.5711 419.99 83.3779 427.379 83.3779C432.294 83.3475 437.166 84.2941 441.713 86.1627C446.26 88.0313 450.39 90.7847 453.866 94.2634C457.341 97.7421 460.092 101.877 461.959 106.428C463.826 110.979 464.772 115.855 464.741 120.775Z" fill="#FFCACE"/>
    <path opacity="0.1" d="M354.069 233.158L344.15 245.966L342.943 247.525C342.529 247.56 342.122 247.589 341.715 247.596C337.202 247.682 333.531 245.752 331.717 240.448C330.355 236.85 328.46 233.477 326.097 230.442C324.898 228.805 323.555 227.147 322.113 225.438C306.702 207.569 279.266 188.478 275.024 185.554C276.231 184.268 276.895 183.538 276.895 183.538L289.035 176.634L328.004 210.521L354.069 233.158Z" fill="black"/>
    <path opacity="0.1" d="M389.289 177.077C385.166 183.529 381.604 190.322 378.641 197.384C378.641 197.384 324.426 125.842 356.911 131.939C361.767 132.889 366.71 133.32 371.657 133.226C374.949 136.757 379.641 148.386 382.476 155.984C383.667 159.314 384.522 162.755 385.025 166.255C385.754 171.009 388.61 175.955 389.289 177.077Z" fill="black"/>
    <path d="M390.017 209.578C387.389 215.296 380.062 226.246 380.062 226.246C375.113 230.52 369.862 234.433 364.352 237.954C362.424 239.176 360.403 240.356 358.375 241.421C353.433 244.037 348.435 245.895 344.15 245.966C339.637 246.059 335.966 244.122 334.152 238.819C332.789 235.208 330.892 231.823 328.525 228.776C327.326 227.147 325.983 225.488 324.541 223.809C307.802 204.417 276.888 183.538 276.888 183.538C277.224 183.074 288.007 168.342 297.997 158.15C308.152 147.8 356.475 129.888 357.697 128.265C357.766 128.17 357.843 128.079 357.925 127.994C358.397 127.511 358.97 127.138 359.602 126.902C360.234 126.665 360.91 126.571 361.583 126.626C362.256 126.68 362.908 126.882 363.494 127.217C364.08 127.553 364.585 128.013 364.973 128.566C366.272 130.437 367.942 132.021 369.879 133.219C373.171 135.206 378.52 148.429 381.633 156.77C382.828 160.101 383.682 163.545 384.183 167.049C385.011 172.445 388.596 178.106 388.596 178.106C388.596 178.106 392.652 203.888 390.017 209.578Z" fill="#575988"/>
    <path opacity="0.1" d="M412.226 329.923C410.891 333.154 406.513 335.992 402.293 338.065L395.901 331.667L405.899 326.242L412.226 329.923Z" fill="black"/>
    <path opacity="0.1" d="M367.066 201.865C367.066 201.865 362.003 224.738 358.382 241.428C353.433 244.037 348.435 245.895 344.15 245.966L333.917 259.175C333.917 259.175 325.469 263.228 318.921 266.538C318.921 265.473 318.885 264.336 318.885 263.157C318.939 250.688 320.631 238.28 323.919 226.253C324.134 225.467 324.348 224.659 324.569 223.837C325.69 219.713 326.897 215.153 328.068 210.543C329.961 203.152 331.767 195.647 332.96 189.664C336.616 171.373 352.862 174.218 352.862 174.218C371.536 172.181 367.066 201.865 367.066 201.865Z" fill="black"/>
    <path opacity="0.1" d="M371.936 203.481C371.936 203.481 367.83 222.065 364.359 237.954C362.431 239.176 360.41 240.356 358.382 241.421C353.433 244.037 348.435 245.895 344.15 245.966C339.637 246.059 335.966 244.122 334.152 238.819C332.789 235.209 330.892 231.823 328.525 228.776C328.611 228.44 328.704 228.097 328.797 227.754C331.789 216.74 335.716 201.694 337.802 191.258C341.458 172.967 357.704 175.812 357.704 175.812C376.406 173.81 371.936 203.481 371.936 203.481Z" fill="black"/>
    <path d="M356.097 174.218C356.097 174.218 339.858 171.359 336.202 189.664C334.117 200.093 330.182 215.146 327.19 226.16C323.852 238.338 322.147 250.907 322.12 263.535C322.12 268.475 322.391 272.584 323.205 273.807C325.64 277.466 327.675 280.311 330.925 283.156C334.174 286.001 390.91 341.688 390.91 341.688C390.91 341.688 411.74 335.184 410.112 327.057C410.112 327.057 377.22 295.757 375.592 289.66C375.592 289.66 356.911 264.293 358.132 257.874C359.353 251.456 370.315 201.865 370.315 201.865C370.315 201.865 374.778 172.181 356.097 174.218Z" fill="#575988"/>
    <path opacity="0.1" d="M305.531 274.057L304.738 275.672C302.653 277.402 301.275 278.703 301.275 278.703L289.092 281.147C289.092 281.147 205.842 235.209 225.737 226.675C230.385 224.681 235.648 221.271 240.99 217.211C254.915 218.312 274.474 233.179 274.474 233.179C291.363 243.651 305.531 274.057 305.531 274.057Z" fill="black"/>
    <path opacity="0.1" d="M299.982 288.645L281.78 292.934L254.429 332.139C244.76 328.973 237.519 326.671 237.519 326.671L253.351 291.712L279.773 284.8C279.773 284.8 295.284 289.203 298.454 288.46C298.971 288.38 299.5 288.445 299.982 288.645Z" fill="black"/>
    <path d="M75.7097 490.632C79.4373 494.978 83.3292 499.209 87.4282 503.176L87.7067 503.448L87.8781 503.612L88.0066 503.741C88.1566 503.884 88.3066 504.034 88.4637 504.17C94.0203 509.505 99.8887 514.505 106.038 519.144C111.515 512.711 119.742 505.085 119.742 505.085L159.539 470.94C161.803 468.88 164.238 467.015 166.816 465.365C167.53 464.922 168.244 464.493 168.958 464.093C169.84 463.613 170.748 463.184 171.679 462.806C177.784 460.369 183.476 444.937 183.476 444.937L213.525 404.288L217.896 395.568L231.521 368.299L232.178 366.977L243.604 344.104L250.88 333.676L252.437 331.446L279.345 292.891L298.447 288.438L304.731 275.665C304.731 275.665 290.563 245.28 273.675 234.78C273.675 234.78 252.887 218.977 238.912 218.748L238.648 218.927C234.742 221.611 230.689 224.074 226.508 226.303C225.879 226.632 225.251 226.939 224.651 227.218C222.066 228.412 219.774 229.162 218.467 228.862C214.004 227.84 182.762 264.836 179.905 281.09C177.049 297.344 173.814 298.166 173.814 298.166C173.814 298.166 168.529 313.176 169.344 316.035C169.943 318.137 165.687 325.963 164.545 333.69C164.072 336.334 164.186 339.051 164.88 341.645C165.974 345.421 166.311 349.376 165.873 353.282C165.873 353.711 165.787 354.133 165.73 354.554C165.216 358.563 163.962 362.441 162.031 365.991C160.103 369.3 158.361 377.863 156.04 384.153C154.954 387.141 153.726 389.607 152.291 390.786C147.82 394.445 141.322 411.114 141.322 411.114C141.322 411.114 127.111 429.405 123.469 430.62C121.034 431.435 110.308 443.071 103.431 450.748C99.9679 454.593 97.4757 457.452 97.4757 457.452L93.4838 462.091L92.277 463.471L90.3561 465.715L72.3534 486.629L75.7097 490.632Z" fill="#575988"/>
    <path d="M236.163 229.191C236.091 229.262 231.514 233.479 226.515 237.94C222.944 241.106 219.16 244.373 216.646 246.302C210.79 250.784 192.402 283.47 191.602 284.936L183.476 316.593C183.176 318.058 181.248 327.257 179.377 333.697C178.441 336.899 177.534 339.415 176.842 339.973C175.906 340.731 173.985 347.835 172.321 355.29C172.229 355.705 172.129 356.12 172.043 356.534C171.329 359.779 170.615 363.024 170.079 365.755L164.759 386.44L153.033 432.021C152.84 432.464 148.806 441.613 142.614 443.686C140.843 444.279 133.502 452.035 123.819 462.949L122.677 464.25C112.458 475.829 99.8537 490.632 88.4994 504.213C88.3423 504.077 88.1923 503.927 88.0424 503.784L87.9138 503.655C98.0898 491.54 110.944 476.394 121.663 464.264L122.805 462.963C132.61 451.892 140.429 443.607 142.393 442.95C148.234 440.998 152.255 431.878 152.298 431.785L163.981 386.276L169.301 365.547C169.493 364.582 170.272 360.737 171.272 356.255C171.357 355.848 171.457 355.433 171.55 355.012C173.121 348.114 175.121 340.273 176.349 339.287C176.884 338.858 177.677 336.671 178.555 333.647C179.984 328.751 181.598 321.675 182.697 316.357L190.867 284.535C191.645 283.106 210.062 250.227 216.153 245.602C218.653 243.694 222.423 240.434 225.987 237.261C230.093 233.63 233.906 230.113 235.177 228.941C235.441 228.691 235.598 228.555 235.613 228.54L236.163 229.191Z" fill="#575988"/>
    <path d="M235.356 229.191C235.277 229.255 230.985 233.244 226.165 237.532C222.466 240.82 218.46 244.294 215.839 246.302C209.976 250.784 191.559 283.47 190.788 284.936L182.683 316.593C182.383 318.058 180.448 327.257 178.577 333.697C177.641 336.899 176.735 339.415 176.042 339.973C175.121 340.688 173.264 347.707 171.579 355.062C171.479 355.476 171.393 355.891 171.293 356.305C170.543 359.629 169.865 362.953 169.279 365.755L164.009 386.276L152.219 432.021C152.026 432.464 147.992 441.613 141.8 443.686C140.029 444.279 132.696 452.02 123.034 462.92L121.877 464.221C111.765 475.658 99.311 490.296 88.0066 503.741L87.8781 503.612L87.7067 503.448L87.4282 503.176C97.5614 491.132 110.237 476.187 120.827 464.2L121.977 462.899C131.781 451.842 139.587 443.564 141.543 442.885C147.392 440.934 151.412 431.814 151.448 431.721L163.216 386.011L168.479 365.547C168.665 364.568 169.465 360.608 170.493 356.041C170.586 355.634 170.679 355.219 170.779 354.797C172.343 347.957 174.314 340.273 175.521 339.308C176.056 338.879 176.849 336.692 177.727 333.669C179.155 328.772 180.776 321.696 181.869 316.378L190.038 284.557C190.824 283.127 209.234 250.248 215.325 245.623C217.939 243.622 221.945 240.155 225.644 236.867C230.435 232.579 234.713 228.633 234.784 228.562L235.163 228.962L235.356 229.191Z" fill="#DCE6F2"/>
    <path opacity="0.1" d="M267.569 252.264C267.569 252.264 258.364 273.399 265.427 281.126L267.569 252.264Z" fill="black"/>
    <path opacity="0.1" d="M281.373 264.186C281.373 264.186 275.96 279.089 278.938 281.126L281.373 264.186Z" fill="black"/>
    <path opacity="0.1" d="M288.371 272.627C288.371 272.627 286.157 280.147 288.371 282.72V272.627Z" fill="black"/>
    <path opacity="0.1" d="M163.602 431.113C163.602 431.113 183.097 424.344 182.555 428.133C182.012 431.921 163.602 431.113 163.602 431.113Z" fill="black"/>
    <path opacity="0.1" d="M159.81 449.547C159.81 449.547 170.386 454.422 173.085 449.547C175.785 444.672 159.81 449.547 159.81 449.547Z" fill="black"/>
    <path opacity="0.1" d="M316.3 395.346C316.3 395.346 294.641 399.142 294.37 402.937C294.098 406.732 316.3 395.346 316.3 395.346Z" fill="black"/>
    <path opacity="0.1" d="M305.338 299.417C305.338 299.417 296.54 309.424 297.89 313.233C299.24 317.043 305.338 299.417 305.338 299.417Z" fill="black"/>
    <path opacity="0.1" d="M464.741 120.775C464.746 124.446 464.207 128.097 463.142 131.611C462.424 131.307 461.626 131.247 460.871 131.439C460.7 132.699 460.041 133.842 459.036 134.62L454.08 128.551C453.943 128.347 453.753 128.183 453.53 128.08C453.03 127.894 452.537 128.315 452.102 128.608C450.438 129.695 448.153 129.137 446.474 128.072C444.796 127.007 443.418 125.485 441.683 124.499C440.025 123.594 438.135 123.205 436.255 123.381C434.375 123.556 432.59 124.289 431.128 125.485C429.77 126.781 428.571 128.235 427.558 129.816C426.15 131.922 424.313 133.705 422.166 135.049C421.089 135.715 419.874 136.126 418.614 136.25C417.354 136.374 416.082 136.207 414.897 135.763C414.176 135.357 413.42 135.015 412.64 134.741C410.198 134.141 408.005 136.292 406.434 138.265C404.863 140.238 402.864 142.468 400.343 142.096C395.716 141.381 396.13 133.226 391.688 131.746H391.645C390.073 126.603 389.627 121.181 390.339 115.851C391.051 110.52 392.903 105.405 395.769 100.856C398.635 96.3063 402.448 92.4294 406.948 89.4893C411.447 86.5491 416.527 84.615 421.841 83.8188C427.155 83.0226 432.579 83.3831 437.741 84.8758C442.903 86.3684 447.683 88.958 451.755 92.4679C455.826 95.9777 459.093 100.325 461.333 105.214C463.573 110.103 464.733 115.418 464.734 120.796L464.741 120.775Z" fill="black"/>
    <path d="M460.714 85.6508C456.429 82.8275 451.623 80.9762 447.196 78.4102C441.126 74.8793 435.77 69.9974 429.207 67.5243C425.789 66.3708 422.266 65.5568 418.689 65.0941C416.66 64.7653 414.568 64.4365 412.569 64.8939C409.826 65.5086 407.62 67.4885 405.149 68.8252C399.222 72.0345 391.631 71.6128 386.239 75.6655C380.662 79.8684 379.177 87.4806 378.056 94.3782C376.142 106.179 374 118.28 367.78 128.48C367.417 128.937 367.236 129.512 367.273 130.095C367.425 130.552 367.717 130.95 368.108 131.232C371.736 134.405 376.756 137.221 381.169 135.277C383.026 134.455 384.44 132.904 386.054 131.668C387.668 130.431 389.76 129.473 391.688 130.109C396.137 131.582 395.716 139.752 400.35 140.452C402.843 140.824 404.878 138.601 406.442 136.628C408.005 134.655 410.198 132.504 412.647 133.104C413.429 133.379 414.186 133.718 414.911 134.119C417.218 135.134 419.981 134.677 422.173 133.405C424.323 132.063 426.161 130.276 427.565 128.165C428.581 126.588 429.78 125.137 431.135 123.841C432.597 122.644 434.381 121.91 436.261 121.733C438.141 121.556 440.031 121.944 441.69 122.847C443.425 123.834 444.796 125.349 446.482 126.421C448.167 127.493 450.445 128.044 452.109 126.95C452.559 126.657 453.051 126.235 453.537 126.421C453.758 126.529 453.947 126.691 454.087 126.893L459.036 132.961C460.043 132.184 460.704 131.042 460.878 129.781C462.135 129.388 463.435 130.067 464.67 130.495C465.905 130.924 467.569 131.06 468.283 129.952C468.862 129.059 468.476 127.872 468.526 126.807C468.626 124.87 470.211 123.326 471.911 122.411C473.611 121.497 475.532 120.982 477.167 119.96C480.252 118.016 481.994 114.306 482.023 110.668C481.975 107.545 480.995 104.508 479.209 101.948C476.838 98.4166 474.403 99.5317 471.275 97.7019C469.447 96.6368 468.897 94.4997 467.848 92.7842C466.014 89.9174 463.58 87.4834 460.714 85.6508Z" fill="#FFDFCF"/>
    <path opacity="0.1" d="M659.329 298.602C653.523 308.087 648.66 317.3 636.741 317.3C632.122 317.303 627.554 316.329 623.338 314.441C620.181 307.908 617.625 303.191 617.625 303.191C617.625 303.191 665.277 282.055 663.378 289.367C662.771 291.776 657.979 293.491 659.329 298.602Z" fill="black"/>
    <path d="M636.741 315.671C654.982 315.671 669.769 300.87 669.769 282.613C669.769 264.355 654.982 249.555 636.741 249.555C618.501 249.555 603.714 264.355 603.714 282.613C603.714 300.87 618.501 315.671 636.741 315.671Z" fill="#FFCACE"/>
    <path opacity="0.1" d="M725.155 504.098C724.858 504.005 724.583 503.853 724.345 503.651C724.107 503.45 723.911 503.204 723.77 502.926C721.87 499.138 686.672 493.713 686.672 493.713L679.067 479.625C679.067 479.625 660.657 480.976 657.408 477.48C654.158 473.985 636.556 473.413 636.698 472.334C636.73 471.795 636.713 471.254 636.648 470.719H636.698L641.961 466.652C641.961 466.652 714.8 455.809 723.727 494.835C724.453 497.879 724.93 500.977 725.155 504.098Z" fill="black"/>
    <path opacity="0.1" d="M672.868 324.884C672.868 324.884 634.692 361.202 635.235 349.008C635.263 347.255 635.078 345.505 634.685 343.797L634.792 343.39C634.792 343.39 644.461 333.276 646.896 328.665C648.581 325.492 661.892 320.088 669.933 317.093C671.568 321.661 672.868 324.884 672.868 324.884Z" fill="black"/>
    <path d="M676.117 315.671C676.117 315.671 649.31 324.891 646.839 329.494C644.368 334.098 634.792 344.219 634.792 344.219L626.051 381.794L631.193 433.558C631.193 433.558 632.55 443.314 630.65 446.831C628.75 450.348 628.215 458.217 632.278 460.111C636.341 462.006 636.906 469.596 636.756 470.683C636.606 471.769 654.208 472.305 657.465 475.829C660.721 479.353 679.124 477.973 679.124 477.973L686.672 492.062C686.672 492.062 721.87 497.48 723.77 501.275C725.669 505.07 736.759 500.732 729.483 490.432C722.206 480.132 725.962 463.878 725.962 463.878C725.962 463.878 723.82 392.337 712.394 375.533C712.394 375.533 696.148 336.513 693.442 334.884C690.735 333.254 674.489 321.904 676.117 315.671Z" fill="#DCE6F2"/>
    <path opacity="0.1" d="M676.117 438.84C676.117 438.84 724.305 477.437 721.056 484.499C717.807 491.561 676.117 438.84 676.117 438.84Z" fill="black"/>
    <path opacity="0.1" d="M678.974 461.998C678.974 461.998 707.102 476.044 703.189 485.15L678.974 461.998Z" fill="black"/>
    <path opacity="0.1" d="M645.254 427.018C645.254 427.018 660.414 426.303 660.964 429.119L645.254 427.018Z" fill="black"/>
    <path opacity="0.1" d="M642.004 438.84C642.004 438.84 664.206 444.394 664.206 447.646L642.004 438.84Z" fill="black"/>
    <path d="M662.064 403.709L636.741 426.896C636.741 426.896 620.317 433.007 617.639 438.84C614.961 444.672 594.895 447.646 593.816 443.243C592.738 438.84 562.953 414.588 562.953 414.588C562.953 414.588 546.707 399.956 542.915 389.135C539.123 378.313 525.062 369.207 525.062 369.207C525.062 369.207 482.287 357.699 488.785 341.71C495.284 325.72 539.101 354.969 539.101 354.969C539.101 354.969 566.18 374.475 570.522 380.443C574.864 386.412 605.713 399.528 605.713 399.528C605.428 396.754 610.991 389.892 616.368 383.967C621.274 378.556 626.023 373.96 626.023 373.96L661.778 403.502L662.064 403.709Z" fill="#FFCACE"/>
    <path opacity="0.1" d="M680.445 499.409C680.445 499.409 703.189 526.778 701.868 532.196C700.547 537.614 680.445 499.409 680.445 499.409Z" fill="black"/>
    <path opacity="0.1" d="M546.7 525.691C547.242 526.506 549.406 535.698 559.696 541.138L546.7 525.691Z" fill="black"/>
    <path opacity="0.1" d="M569.987 533.418C569.987 533.418 569.444 544.14 577.299 546.827C585.154 549.515 569.987 533.418 569.987 533.418Z" fill="black"/>
    <path d="M677.496 304.792C677.382 302.762 676.802 300.786 675.803 299.016C674.804 297.246 673.411 295.73 671.733 294.585C672.97 294.099 673.999 293.196 674.643 292.033C675.287 290.869 675.505 289.517 675.26 288.209C674.996 289.096 673.939 289.432 673.039 289.639C672.511 289.76 672.047 289.846 671.611 289.918C672.715 287.818 673.623 285.622 674.325 283.356C675.653 278.531 674.946 273.399 673.818 268.525C672.304 261.942 669.805 255.173 664.449 250.884C662.014 249.102 659.378 247.614 656.594 246.453C654.086 245.177 651.454 244.164 648.738 243.429C645.982 242.786 643.125 242.714 640.312 242.343C634.856 241.628 629.6 239.762 624.08 239.484C618.56 239.205 612.455 240.842 609.627 245.43C608.731 246.817 608.31 248.458 608.427 250.105C608.727 253 611.126 255.366 613.861 256.538C616.596 257.71 619.517 257.732 622.281 258.618C625.53 259.661 628.708 260.984 631.957 262.113C633.692 262.714 635.492 263.364 636.777 264.651C638.827 266.695 639.076 269.804 639.569 272.62C640.321 276.91 641.885 281.018 644.175 284.721C644.982 286.029 645.903 287.344 646.11 288.853C646.368 290.69 645.675 292.963 647.153 294.142C648.303 295.05 650.009 294.599 651.295 293.827C652.58 293.055 653.666 291.99 655.115 291.683C656.858 291.311 658.686 292.162 659.971 293.341C660.989 294.269 661.794 295.406 662.331 296.674C662.869 297.943 663.126 299.312 663.085 300.689C663.013 302.398 662.485 304.17 663.085 305.778C663.649 307.258 665.884 308.144 666.927 307.122C667.008 307.302 667.101 307.476 667.205 307.644C668.298 309.316 670.369 310.096 672.361 310.296C673.348 310.457 674.361 310.325 675.275 309.917C677.053 308.988 677.588 306.75 677.496 304.792Z" fill="#FFDFCF"/>
    <path opacity="0.1" d="M203.399 486.665H196.33C196.33 486.665 192.002 475.014 192.274 464.45C192.366 460.776 195.287 457.846 199.043 455.601L203.399 486.665Z" fill="black"/>
    <g opacity="0.1">
      <path opacity="0.1" d="M378.906 91.126C379.17 89.5034 379.455 87.8309 379.812 86.1797C379.075 88.8755 378.5 91.6133 378.092 94.3782C377.313 99.1957 376.492 104.056 375.371 108.816C376.849 102.984 378.029 97.0792 378.906 91.126Z" fill="black"/>
      <path opacity="0.1" d="M478.009 116.765C476.374 117.794 474.439 118.301 472.754 119.216C471.068 120.131 469.469 121.675 469.369 123.612C469.348 123.948 469.348 124.284 469.369 124.62C470.045 123.723 470.914 122.99 471.911 122.476C473.611 121.561 475.524 121.046 477.16 120.024C478.517 119.108 479.652 117.898 480.48 116.484C481.308 115.07 481.808 113.488 481.944 111.854C481.178 113.863 479.802 115.58 478.009 116.765Z" fill="black"/>
      <path opacity="0.1" d="M465.548 127.3C464.313 126.843 463.013 126.164 461.756 126.586C461.583 127.847 460.921 128.989 459.914 129.766L454.965 123.698C454.825 123.496 454.636 123.334 454.415 123.226C453.915 123.048 453.423 123.462 452.987 123.755C451.323 124.849 449.045 124.291 447.36 123.226C445.675 122.161 444.304 120.639 442.568 119.652C440.909 118.739 439.015 118.343 437.129 118.515C435.243 118.687 433.452 119.419 431.985 120.617C430.631 121.902 429.433 123.341 428.415 124.906C427.011 127.017 425.173 128.803 423.023 130.145C420.831 131.389 418.067 131.846 415.761 130.86C415.036 130.459 414.278 130.12 413.497 129.845C411.048 129.245 408.862 131.396 407.291 133.369C405.72 135.342 403.721 137.565 401.2 137.193C396.565 136.478 396.987 128.323 392.538 126.85C390.61 126.214 388.517 127.172 386.904 128.408C385.29 129.645 383.876 131.196 382.019 131.982C377.606 133.926 372.586 131.11 368.958 127.937C368.762 127.774 368.583 127.592 368.422 127.393C368.222 127.744 368.03 128.108 367.823 128.437C367.453 128.891 367.272 129.469 367.316 130.052C367.462 130.51 367.753 130.909 368.144 131.189C371.772 134.362 376.792 137.179 381.205 135.234C383.062 134.412 384.476 132.861 386.089 131.625C387.703 130.388 389.796 129.43 391.724 130.067C396.173 131.539 395.751 139.709 400.386 140.409C402.878 140.781 404.913 138.558 406.477 136.585C408.041 134.613 410.241 132.461 412.683 133.061C413.465 133.333 414.223 133.673 414.947 134.076C417.253 135.091 420.017 134.634 422.216 133.362C424.362 132.017 426.197 130.231 427.601 128.122C428.617 126.546 429.815 125.094 431.171 123.798C432.631 122.602 434.415 121.868 436.293 121.691C438.172 121.514 440.061 121.902 441.718 122.805C443.454 123.791 444.832 125.306 446.51 126.378C448.188 127.451 450.473 128.001 452.137 126.907C452.587 126.614 453.08 126.193 453.565 126.378C453.786 126.486 453.976 126.648 454.115 126.85L459.064 132.919C460.071 132.141 460.733 130.999 460.907 129.738C462.163 129.345 463.47 130.024 464.706 130.453C465.941 130.881 467.562 131.017 468.276 129.909C468.776 129.13 468.555 128.144 468.519 127.193C468.058 127.416 467.556 127.54 467.045 127.559C466.533 127.577 466.024 127.489 465.548 127.3Z" fill="black"/>
    </g>
    <path opacity="0.1" d="M661.785 403.48C661.356 403.852 660.908 404.2 660.443 404.524C660.443 404.524 622.595 384.332 616.375 383.967C621.281 378.556 626.03 373.96 626.03 373.96L661.785 403.48Z" fill="black"/>
    <path opacity="0.1" d="M663.692 335.47C663.692 335.47 697.255 357.435 685.322 377.749C673.389 398.062 663.692 404.524 663.692 404.524C663.692 404.524 624.137 383.417 619.26 383.967C614.383 384.517 636.399 345.034 636.399 345.034L663.692 335.47Z" fill="black"/>
    <path d="M662.064 334.655C662.064 334.655 695.627 356.62 683.694 376.934C671.761 397.247 662.064 403.709 662.064 403.709C662.064 403.709 622.509 382.609 617.653 383.152C612.797 383.695 634.792 344.219 634.792 344.219L662.064 334.655Z" fill="#DCE6F2"/>
    <g opacity="0.1">
      <path opacity="0.1" d="M674.068 309.081C672.083 308.873 670.012 308.094 668.912 306.422C668.805 306.25 668.719 306.071 668.633 305.9C667.591 306.922 665.356 306.036 664.792 304.556C664.177 302.948 664.713 301.175 664.792 299.467C664.834 298.09 664.578 296.72 664.04 295.451C663.503 294.182 662.697 293.046 661.678 292.119C660.378 290.94 658.572 290.089 656.822 290.461C655.394 290.768 654.251 291.833 653.002 292.605C651.752 293.377 650.009 293.827 648.86 292.92C647.389 291.74 648.074 289.467 647.817 287.63C647.61 286.122 646.689 284.807 645.882 283.499C643.594 279.794 642.031 275.687 641.276 271.398C640.783 268.582 640.562 265.473 638.491 263.428C637.206 262.142 635.406 261.491 633.671 260.891C630.443 259.762 627.244 258.439 623.987 257.396C621.231 256.509 618.275 256.459 615.575 255.316C612.876 254.172 610.434 251.742 610.134 248.883C610.015 247.234 610.439 245.593 611.341 244.208C611.556 243.854 611.794 243.515 612.055 243.193C611.127 243.934 610.332 244.829 609.705 245.838C608.804 247.22 608.382 248.86 608.506 250.505C608.805 253.4 611.205 255.766 613.94 256.938C616.675 258.11 619.596 258.132 622.359 259.018C625.608 260.062 628.786 261.384 632.035 262.513C633.771 263.121 635.606 263.764 636.856 265.051C638.905 267.102 639.155 270.211 639.648 273.028C640.4 277.316 641.963 281.421 644.254 285.122C645.061 286.43 645.975 287.745 646.189 289.26C646.446 291.097 645.753 293.37 647.232 294.542C648.374 295.457 650.088 295.007 651.373 294.235C652.659 293.463 653.744 292.391 655.194 292.091C656.936 291.719 658.764 292.569 660.05 293.756C661.068 294.683 661.874 295.82 662.411 297.088C662.948 298.357 663.205 299.727 663.163 301.104C663.092 302.812 662.563 304.585 663.163 306.186C663.727 307.665 665.955 308.559 667.005 307.53C667.084 307.711 667.177 307.885 667.284 308.051C668.376 309.724 670.447 310.503 672.432 310.71C673.423 310.869 674.438 310.735 675.353 310.324C676.01 309.969 676.54 309.417 676.867 308.745C675.981 309.105 675.014 309.221 674.068 309.081Z" fill="black"/>
      <path opacity="0.1" d="M673.411 293.356L673.818 293.642C674.055 293.389 674.27 293.117 674.461 292.827C674.132 293.042 673.78 293.22 673.411 293.356Z" fill="black"/>
    </g>
    <path opacity="0.1" d="M148.72 97.5088C148.72 97.5088 174.785 95.9364 171.714 114.22C171.714 114.22 172.321 117.451 169.401 118.916C169.401 118.916 169.351 117.565 166.723 118.023C165.78 118.183 164.82 118.229 163.866 118.159C162.589 118.074 161.374 117.572 160.41 116.729C160.41 116.729 153.076 113.698 150.227 101.719C150.227 101.719 148.085 99.1028 148.206 98.4309L152.605 100.311C152.605 100.311 151.098 103.484 152.283 106.129C152.283 106.129 152.426 100.411 153.269 100.561C153.44 100.561 155.554 101.662 155.554 101.662C155.554 101.662 152.969 107.194 154.919 111.218C154.919 111.218 154.204 104.399 156.347 102.062L159.446 103.87C159.446 103.87 156.425 109.588 158.475 114.249C158.475 114.249 157.946 107.101 160.096 104.313L162.902 106.501C162.902 106.501 160.046 112.133 161.795 116C161.795 116 162.024 107.673 163.509 107.044C163.509 107.044 165.966 109.188 166.366 110.103C166.366 110.103 164.416 114.192 165.652 116.35C165.652 116.35 166.366 110.804 167.001 110.782C167.001 110.782 169.443 114.456 169.701 116.972C169.579 114.643 168.853 112.387 167.594 110.425C169.004 110.693 170.305 111.369 171.336 112.369C171.336 112.369 170.957 109.767 166.987 109.51C166.987 109.51 164.966 106.722 164.423 106.558C164.423 106.558 168.372 106.222 170.765 107.273C170.765 107.273 168.658 104.821 163.702 105.936L160.931 103.67C160.931 103.67 166.13 102.955 168.329 103.749C168.329 103.749 165.794 101.604 160.189 103.156L157.168 101.354C157.168 101.354 161.603 100.397 164.238 100.74C164.238 100.74 161.453 99.2386 156.282 100.868L154.14 99.8962C154.14 99.8962 157.389 99.26 158.339 99.1814C159.289 99.1028 159.339 98.8169 159.339 98.8169C157.282 98.4735 155.171 98.7085 153.24 99.4959C153.24 99.4959 148.642 97.759 148.72 97.5088Z" fill="#5A67D8"/>
    <path opacity="0.1" d="M686.922 72.6849C686.922 72.6849 712.994 71.1124 709.923 89.3962C709.923 89.3962 710.53 92.627 707.602 94.0994C707.602 94.0994 707.559 92.7413 704.931 93.1988C703.988 93.3575 703.03 93.4055 702.075 93.3417C700.796 93.2551 699.58 92.7532 698.612 91.9122C698.612 91.9122 691.285 88.8816 688.436 76.902C688.436 76.902 686.329 74.286 686.415 73.6141L690.814 75.4939C690.814 75.4939 689.307 78.6747 690.492 81.3122C690.492 81.3122 690.635 75.594 691.478 75.7441C691.649 75.7441 693.763 76.8449 693.763 76.8449C693.763 76.8449 691.178 82.3843 693.127 86.4013C693.127 86.4013 692.413 79.5824 694.555 77.2451L697.655 79.0535C697.655 79.0535 694.634 84.7717 696.684 89.4391C696.684 89.4391 696.155 82.2914 698.305 79.4967L701.111 81.691C701.111 81.691 698.255 87.3234 700.004 91.1903C700.004 91.1903 700.233 82.8632 701.718 82.2342C701.718 82.2342 704.175 84.3785 704.574 85.2934C704.574 85.2934 702.625 89.3819 703.86 91.5405C703.86 91.5405 704.574 85.9868 705.21 85.9653C705.21 85.9653 707.652 89.6392 707.909 92.1624C707.778 89.8302 707.04 87.5729 705.767 85.6151C707.177 85.8794 708.478 86.553 709.509 87.5521C709.509 87.5521 709.13 84.9575 705.16 84.693C705.16 84.693 703.139 81.9054 702.596 81.7339C702.596 81.7339 706.545 81.4051 708.938 82.4486C708.938 82.4486 706.831 79.997 701.875 81.112L699.133 78.9248C699.133 78.9248 704.332 78.2101 706.531 78.9963C706.531 78.9963 703.996 76.852 698.39 78.4102L695.37 76.6018C695.37 76.6018 699.797 75.644 702.439 75.9943C702.439 75.9943 699.654 74.4861 694.484 76.1158L692.342 75.1509C692.342 75.1509 695.591 74.5076 696.541 74.4361C697.49 74.3646 697.54 74.0716 697.54 74.0716C695.484 73.7281 693.373 73.9632 691.442 74.7506C691.442 74.7506 686.85 72.978 686.922 72.6849Z" fill="#5A67D8"/>
    <path opacity="0.1" d="M273.103 47.6537C273.103 47.6537 292.52 65.1441 277.352 75.7799C277.352 75.7799 275.474 78.4817 272.354 77.431C272.354 77.431 273.282 76.4446 271.111 74.8936C270.344 74.3357 269.644 73.6904 269.026 72.9708C268.183 72.0002 267.682 70.7801 267.598 69.497C267.598 69.497 264.605 62.1421 271.168 51.6993C271.168 51.6993 271.554 48.3613 272.089 47.9467L273.839 52.4069C273.839 52.4069 270.525 53.5648 269.476 56.2595C269.476 56.2595 273.632 52.3569 274.125 53.0573C274.232 53.2003 274.946 55.459 274.946 55.459C274.946 55.459 269.219 57.4818 267.74 61.7132C267.74 61.7132 272.068 56.3953 275.267 56.3167L276.153 59.7905C276.153 59.7905 269.961 61.6489 268.083 66.3806C268.083 66.3806 272.803 60.9913 276.295 60.5696L276.702 64.1434C276.702 64.1434 270.704 66.0661 269.162 70.0188C269.162 70.0188 275.253 64.3007 276.745 64.9583C276.745 64.9583 276.924 68.2248 276.553 69.1182C276.553 69.1182 272.268 70.6049 271.589 72.978C271.589 72.978 276.06 69.6114 276.503 70.026C276.503 70.026 275.603 74.3503 273.989 76.3017C275.561 74.5811 276.656 72.4794 277.167 70.2047C277.967 71.3975 278.402 72.7989 278.416 74.236C278.416 74.236 279.995 72.1417 277.374 69.154C277.374 69.154 277.938 65.7517 277.681 65.2513C277.681 65.2513 280.687 67.8316 281.608 70.2547C281.608 70.2547 281.88 67.0311 277.602 64.2792L277.274 60.7054C277.274 60.7054 281.423 63.9147 282.408 66.0376C282.408 66.0376 282.173 62.7067 277.11 59.8119L276.281 56.3953C276.281 56.3953 280.073 58.8827 281.68 61.0127C281.68 61.0127 280.794 57.9678 276.003 55.4232L275.167 53.1932C275.167 53.1932 277.902 55.0587 278.638 55.6663C279.373 56.2738 279.602 56.1237 279.602 56.1237C278.403 54.4175 276.754 53.0786 274.839 52.2568C274.839 52.2568 272.846 47.8038 273.103 47.6537Z" fill="#5A67D8"/>
    <path opacity="0.1" d="M544.407 153.497C544.407 153.497 563.824 170.98 548.649 181.623C548.649 181.623 546.778 184.325 543.65 183.267C543.65 183.267 544.586 182.281 542.415 180.729C541.643 180.177 540.943 179.532 540.33 178.807C539.488 177.836 538.986 176.616 538.901 175.333C538.901 175.333 535.916 167.985 542.472 157.535C542.472 157.535 542.85 154.197 543.386 153.783L545.136 158.243C545.136 158.243 541.822 159.401 540.772 162.095C540.772 162.095 544.928 158.2 545.428 158.893C545.528 159.036 546.25 161.295 546.25 161.295C546.25 161.295 540.53 163.332 539.023 167.556C539.023 167.556 543.357 162.246 546.55 162.16L547.435 165.641C547.435 165.641 541.251 167.492 539.366 172.231C539.366 172.231 544.086 166.834 547.578 166.413L547.992 169.951C547.992 169.951 541.986 171.881 540.451 175.826C540.451 175.826 546.535 170.144 548.028 170.766C548.028 170.766 548.213 174.039 547.842 174.933C547.842 174.933 543.557 176.412 542.843 178.785C542.843 178.785 547.314 175.419 547.756 175.84C547.756 175.84 546.857 180.129 545.243 182.109C546.817 180.389 547.915 178.287 548.428 176.012C549.227 177.205 549.659 178.607 549.67 180.043C549.67 180.043 551.256 177.949 548.628 174.961C548.628 174.961 549.199 171.566 548.935 171.059C548.935 171.059 551.941 173.639 552.869 176.062C552.869 176.062 553.134 172.838 548.863 170.087L548.528 166.513C548.528 166.513 552.684 169.715 553.669 171.838C553.669 171.838 553.434 168.507 548.37 165.619L547.535 162.195C547.535 162.195 551.327 164.69 552.934 166.813C552.934 166.813 552.048 163.768 547.264 161.231L546.442 159.008C546.442 159.008 549.17 160.873 549.913 161.488C550.656 162.103 550.87 161.945 550.87 161.945C549.671 160.238 548.022 158.897 546.107 158.071C546.107 158.071 544.143 153.64 544.407 153.497Z" fill="#5A67D8"/>
    <path opacity="0.1" d="M755.226 49.6622C755.226 49.6622 774.636 67.1455 759.468 77.7884C759.468 77.7884 757.597 80.4902 754.469 79.4323C754.469 79.4323 755.398 78.446 753.227 76.8949C752.458 76.339 751.758 75.6936 751.142 74.9722C750.298 74.0024 749.796 72.7818 749.713 71.4984C749.713 71.4984 746.721 64.1506 753.284 53.7006C753.284 53.7006 753.669 50.3627 754.205 49.9552L755.955 54.4083C755.955 54.4083 752.641 55.5662 751.591 58.2609C751.591 58.2609 755.747 54.3654 756.247 55.0587C756.347 55.2017 757.069 57.4603 757.069 57.4603C757.069 57.4603 751.313 59.5046 749.82 63.7146C749.82 63.7146 754.148 58.4038 757.347 58.318L758.233 61.799C758.233 61.799 752.041 63.6574 750.163 68.3891C750.163 68.3891 754.883 62.9926 758.375 62.5709L758.782 66.109C758.782 66.109 752.784 68.0389 751.249 71.9844C751.249 71.9844 757.333 66.302 758.825 66.9239C758.825 66.9239 759.004 70.1975 758.632 71.091C758.632 71.091 754.348 72.5706 753.634 74.9507C753.634 74.9507 758.104 71.5842 758.547 71.9987C758.547 71.9987 757.647 76.3231 756.033 78.2673C757.607 76.5479 758.702 74.4457 759.211 72.1703C760.01 73.3639 760.444 74.7648 760.461 76.2016C760.461 76.2016 762.039 74.1073 759.418 71.1196C759.418 71.1196 759.982 67.7244 759.725 67.2169C759.725 67.2169 762.731 69.7972 763.653 72.2203C763.653 72.2203 763.924 68.9967 759.646 66.2377L759.318 62.6638C759.318 62.6638 763.467 65.866 764.452 67.9889C764.452 67.9889 764.217 64.6581 759.161 61.7704L758.325 58.3538C758.325 58.3538 762.117 60.8412 763.724 62.964C763.724 62.964 762.839 59.9263 758.011 57.3817L757.19 55.1588C757.19 55.1588 759.925 57.0315 760.661 57.639C761.396 58.2466 761.625 58.0965 761.625 58.0965C760.425 56.3891 758.776 55.0481 756.861 54.2224C756.861 54.2224 754.962 49.8051 755.226 49.6622Z" fill="#5A67D8"/>
    <path opacity="0.1" d="M246.26 127.065C246.26 127.065 244.389 153.139 226.679 147.686C226.679 147.686 223.401 147.871 222.33 144.769C222.33 144.769 223.68 144.905 223.573 142.239C223.536 141.28 223.615 140.32 223.809 139.38C224.062 138.123 224.719 136.984 225.679 136.135C225.679 136.135 229.643 129.259 241.897 128.008C241.897 128.008 244.753 126.257 245.417 126.428L242.975 130.545C242.975 130.545 240.026 128.637 237.262 129.466C237.262 129.466 242.889 130.353 242.647 131.174C242.597 131.346 241.218 133.319 241.218 133.319C241.218 133.319 236.077 130.031 231.842 131.439C231.842 131.439 238.691 131.596 240.719 134.069L238.519 136.928C238.519 136.928 233.256 133.176 228.365 134.598C228.365 134.598 235.506 135.013 237.998 137.514L235.456 140.009C235.456 140.009 230.25 136.435 226.172 137.665C226.172 137.665 234.392 138.98 234.82 140.524C234.82 140.524 232.349 142.668 231.414 142.925C231.414 142.925 227.622 140.459 225.33 141.374C225.33 141.374 230.721 142.84 230.671 143.44C230.671 143.44 226.708 145.384 224.18 145.305C226.503 145.496 228.835 145.072 230.942 144.076C230.492 145.44 229.653 146.643 228.529 147.536C228.529 147.536 231.15 147.5 231.899 143.597C231.899 143.597 234.92 141.953 235.163 141.453C235.163 141.453 234.97 145.413 233.606 147.65C233.606 147.65 236.313 145.884 235.856 140.817L238.462 138.365C238.462 138.365 238.462 143.619 237.419 145.699C237.419 145.699 239.897 143.469 239.069 137.693L241.254 134.934C241.254 134.934 241.618 139.459 240.933 142.032C240.933 142.032 242.782 139.466 241.854 134.126L243.097 132.111C243.097 132.111 243.304 135.413 243.275 136.399C243.247 137.386 243.504 137.443 243.504 137.443C244.112 135.448 244.156 133.322 243.632 131.303C243.632 131.303 245.982 126.95 246.26 127.065Z" fill="#5A67D8"/>
    <path opacity="0.1" d="M546.121 97.7876C546.121 97.7876 544.25 123.862 526.547 118.409C526.547 118.409 523.262 118.587 522.198 115.492C522.198 115.492 523.541 115.621 523.434 112.955C523.401 111.996 523.48 111.037 523.669 110.096C523.923 108.839 524.58 107.7 525.54 106.851C525.54 106.851 529.511 99.9748 541.758 98.724C541.758 98.724 544.614 96.9799 545.278 97.1443L542.836 101.269C542.836 101.269 539.887 99.3601 537.123 100.182C537.123 100.182 542.75 101.076 542.508 101.898C542.458 102.062 541.122 104.042 541.122 104.042C541.122 104.042 535.981 100.747 531.739 102.155C531.739 102.155 538.587 102.312 540.615 104.792L538.416 107.651C538.416 107.651 533.153 103.899 528.268 105.321C528.268 105.321 535.409 105.743 537.895 108.238L535.359 110.739C535.359 110.739 530.154 107.165 526.076 108.388C526.076 108.388 534.295 109.71 534.724 111.247C534.724 111.247 532.253 113.391 531.325 113.655C531.325 113.655 527.526 111.19 525.233 112.097C525.233 112.097 530.632 113.563 530.575 114.17C530.575 114.17 526.612 116.114 524.084 116.036C526.406 116.222 528.737 115.798 530.846 114.806C530.394 116.169 529.555 117.371 528.433 118.266C528.433 118.266 531.053 118.266 531.803 114.32C531.803 114.32 534.831 112.683 535.067 112.176C535.067 112.176 534.874 116.136 533.51 118.366C533.51 118.366 536.216 116.6 535.759 111.533L538.366 109.081C538.366 109.081 538.366 114.335 537.323 116.415C537.323 116.415 539.801 114.184 538.973 108.409L541.158 105.657C541.158 105.657 541.522 110.175 540.837 112.748C540.837 112.748 542.693 110.182 541.758 104.842L543 102.827C543 102.827 543.208 106.136 543.179 107.115C543.15 108.095 543.407 108.159 543.407 108.159C544.02 106.164 544.065 104.038 543.536 102.019C543.536 102.019 545.843 97.6661 546.121 97.7876Z" fill="#5A67D8"/>
    <path opacity="0.1" d="M718.342 0.621847C718.342 0.621847 716.479 26.6966 698.769 21.243C698.769 21.243 695.491 21.4216 694.42 18.3267C694.42 18.3267 695.769 18.4553 695.655 15.7893C695.621 14.8299 695.702 13.87 695.898 12.9302C696.152 11.6733 696.809 10.5338 697.769 9.68513C697.769 9.68513 701.732 2.80904 713.979 1.55819C713.979 1.55819 716.836 -0.185843 717.5 -0.0214465L715.065 4.10277C715.065 4.10277 712.115 2.19434 709.352 3.01632C709.352 3.01632 714.979 3.90979 714.736 4.73177C714.686 4.89617 713.308 6.87608 713.308 6.87608C713.308 6.87608 708.166 3.58099 703.925 4.98909C703.925 4.98909 710.773 5.14634 712.801 7.62659L710.609 10.4857C710.609 10.4857 705.396 6.73313 700.49 8.16267C700.49 8.16267 707.631 8.58438 710.116 11.0789L707.581 13.5806C707.581 13.5806 702.375 10.0068 698.297 11.229C698.297 11.229 706.51 12.5514 706.938 14.0881C706.938 14.0881 704.467 16.2324 703.539 16.4969C703.539 16.4969 699.747 14.0309 697.448 14.9387C697.448 14.9387 702.846 16.404 702.789 17.0115C702.789 17.0115 698.826 18.9557 696.298 18.8771C698.621 19.0632 700.952 18.6395 703.06 17.6477C702.612 19.0124 701.772 20.2153 700.647 21.1071C700.647 21.1071 703.275 21.1071 704.017 17.1616C704.017 17.1616 707.045 15.5248 707.281 15.0173C707.281 15.0173 707.095 18.9771 705.724 21.2072C705.724 21.2072 708.431 19.4417 707.981 14.374L710.587 11.9224C710.587 11.9224 710.587 17.1759 709.537 19.2559C709.537 19.2559 712.023 17.0258 711.194 11.2505L713.379 8.49861C713.379 8.49861 713.744 13.016 713.051 15.5891C713.051 15.5891 714.908 13.0231 713.972 7.68377L715.215 5.66812C715.215 5.66812 715.422 8.9775 715.4 9.95674C715.379 10.936 715.629 11.0003 715.629 11.0003C716.237 9.00479 716.282 6.87969 715.757 4.86043C715.757 4.86043 718.1 0.500336 718.342 0.621847Z" fill="#5A67D8"/>
    <path opacity="0.1" d="M552.02 426.896L577.656 427.99" stroke="black" stroke-miterlimit="10"/>
    <path opacity="0.1" d="M547.849 431.478L573.486 432.571" stroke="black" stroke-miterlimit="10"/>
    <path opacity="0.1" d="M543.679 436.052L569.315 437.146" stroke="black" stroke-miterlimit="10"/>
    <path opacity="0.1" d="M539.501 440.634L565.138 441.728" stroke="black" stroke-miterlimit="10"/>
    <path opacity="0.1" d="M535.331 445.208L560.967 446.309" stroke="black" stroke-miterlimit="10"/>
    <path opacity="0.1" d="M531.161 449.79L556.797 450.884" stroke="black" stroke-miterlimit="10"/>
    <path opacity="0.1" d="M526.983 454.372L552.619 455.465" stroke="black" stroke-miterlimit="10"/>
    <path opacity="0.1" d="M522.813 458.946L548.449 460.04" stroke="black" stroke-miterlimit="10"/>
  </g>
  <defs>
    <linearGradient id="paint0_linear" x1="373.171" y1="585.539" x2="373.171" y2="61.9491" gradientUnits="userSpaceOnUse">
      <stop stop-color="#808080" stop-opacity="0.25"/>
      <stop offset="0.54" stop-color="#808080" stop-opacity="0.12"/>
      <stop offset="1" stop-color="#808080" stop-opacity="0.1"/>
    </linearGradient>
    <clipPath id="clip0">
      <rect width="774" height="591" fill="white"/>
    </clipPath>
  </defs>
</svg>
