<svg width="105" height="105" viewBox="0 0 105 105" fill="none" xmlns="http://www.w3.org/2000/svg">
  <path d="M52.5 105C51.4393 105 50.4535 104.453 49.8914 103.554L34.7214 79.2824C20.2002 72.417 10.8691 57.7428 10.8691 41.6309C10.8691 18.6754 29.5446 0 52.5 0C75.4554 0 94.1309 18.6754 94.1309 41.6309C94.1309 57.7428 84.7996 72.417 70.2784 79.2824L55.1084 103.554C54.5463 104.453 53.5605 105 52.5 105Z" fill="#A0AEC0" fill-opacity="0.7"/>
  <path d="M52.4999 0C52.4997 0 52.4997 0 52.4999 0V105C53.5606 105 54.5464 104.453 55.1085 103.554L70.2785 79.2824C84.7995 72.417 94.1308 57.7428 94.1308 41.6309C94.1308 18.6754 75.4551 0 52.4999 0Z" fill="#A0AEC0"/>
  <path d="M52.6026 70.6966C36.6321 70.6966 23.6394 57.7036 23.6394 41.7334C23.6394 25.7631 36.6321 12.7702 52.6026 12.7702C68.5731 12.7702 81.5658 25.7631 81.5658 41.7334C81.5658 57.7036 68.5731 70.6966 52.6026 70.6966Z" fill="#FFF4F4"/>
  <path d="M52.6025 12.77C52.5683 12.77 52.5342 12.7713 52.5 12.7713V70.6951C52.5342 70.6953 52.5683 70.6964 52.6025 70.6964C68.573 70.6964 81.5657 57.7034 81.5657 41.7332C81.5657 25.7629 68.573 12.77 52.6025 12.77Z" fill="#F6EFEA"/>
</svg>
